<?xml version="1.0" encoding="UTF-8" standalone="no"?>
<!DOCTYPE svg PUBLIC "-//W3C//DTD SVG 1.1//EN"
 "http://www.w3.org/Graphics/SVG/1.1/DTD/svg11.dtd">
<!-- Generated by graphviz version 6.0.2 (0)
 -->
<!-- Pages: 1 -->
<svg width="253pt" height="69pt"
 viewBox="0.00 0.00 252.54 68.63" xmlns="http://www.w3.org/2000/svg" xmlns:xlink="http://www.w3.org/1999/xlink">
<g id="graph0" class="graph" transform="scale(1 1) rotate(0) translate(4 64.63)">
<polygon fill="white" stroke="none" points="-4,4 -4,-64.63 248.54,-64.63 248.54,4 -4,4"/>
<!-- aab -->
<g id="node1" class="node">
<title>aab</title>
<ellipse fill="none" stroke="green" cx="34.45" cy="-18" rx="34.39" ry="18"/>
<text text-anchor="middle" x="34.45" y="-14.3" font-family="Times,serif" font-size="14.00"> aab 2 </text>
</g>
<!-- abb -->
<g id="node2" class="node">
<title>abb</title>
<ellipse fill="none" stroke="green" cx="209.45" cy="-18" rx="35.19" ry="18"/>
<text text-anchor="middle" x="209.45" y="-14.3" font-family="Times,serif" font-size="14.00"> abb 2 </text>
</g>
<!-- aab&#45;&#45;abb -->
<g id="edge1" class="edge">
<title>aab&#45;&#45;abb</title>
<path fill="none" stroke="black" d="M51.67,-33.61C61.42,-41.37 74.26,-49.95 87.45,-54 116.33,-62.88 126.52,-62.76 155.45,-54 168.82,-49.95 181.91,-41.38 191.85,-33.61"/>
</g>
<!-- aba -->
<g id="node3" class="node">
<title>aba</title>
<ellipse fill="none" stroke="green" cx="121.45" cy="-18" rx="34.39" ry="18"/>
<text text-anchor="middle" x="121.45" y="-14.3" font-family="Times,serif" font-size="14.00"> aba 2 </text>
</g>
<!-- aab&#45;&#45;aba -->
<g id="edge2" class="edge">
<title>aab&#45;&#45;aba</title>
<path fill="none" stroke="black" d="M69.11,-18C74.97,-18 80.83,-18 86.69,-18"/>
</g>
<!-- aba&#45;&#45;abb -->
<g id="edge3" class="edge">
<title>aba&#45;&#45;abb</title>
<path fill="none" stroke="black" d="M156.17,-18C162.13,-18 168.1,-18 174.06,-18"/>
</g>
</g>
</svg>
