<?xml version="1.0" encoding="UTF-8" standalone="no"?>
<!DOCTYPE svg PUBLIC "-//W3C//DTD SVG 1.1//EN"
 "http://www.w3.org/Graphics/SVG/1.1/DTD/svg11.dtd">
<!-- Generated by graphviz version 6.0.2 (0)
 -->
<!-- Pages: 1 -->
<svg width="372pt" height="116pt"
 viewBox="0.00 0.00 371.99 116.00" xmlns="http://www.w3.org/2000/svg" xmlns:xlink="http://www.w3.org/1999/xlink">
<g id="graph0" class="graph" transform="scale(1 1) rotate(0) translate(4 112)">
<polygon fill="white" stroke="none" points="-4,4 -4,-112 367.99,-112 367.99,4 -4,4"/>
<!-- aaab -->
<g id="node1" class="node">
<title>aaab</title>
<ellipse fill="none" stroke="blue" cx="228.35" cy="-90" rx="38.19" ry="18"/>
<text text-anchor="middle" x="228.35" y="-86.3" font-family="Times,serif" font-size="14.00"> aaab 3 </text>
</g>
<!-- abba -->
<g id="node2" class="node">
<title>abba</title>
<ellipse fill="none" stroke="yellow" cx="85.35" cy="-18" rx="38.99" ry="18"/>
<text text-anchor="middle" x="85.35" y="-14.3" font-family="Times,serif" font-size="14.00"> abba 4 </text>
</g>
<!-- aaab&#45;&#45;abba -->
<g id="edge1" class="edge">
<title>aaab&#45;&#45;abba</title>
<path fill="none" stroke="black" d="M202.78,-76.49C176.91,-63.82 137.13,-44.35 111.17,-31.64"/>
</g>
<!-- abab -->
<g id="node3" class="node">
<title>abab</title>
<ellipse fill="none" stroke="yellow" cx="181.35" cy="-18" rx="38.99" ry="18"/>
<text text-anchor="middle" x="181.35" y="-14.3" font-family="Times,serif" font-size="14.00"> abab 4 </text>
</g>
<!-- aaab&#45;&#45;abab -->
<g id="edge2" class="edge">
<title>aaab&#45;&#45;abab</title>
<path fill="none" stroke="black" d="M217.21,-72.41C209.72,-61.25 199.88,-46.6 192.4,-35.47"/>
</g>
<!-- aabb -->
<g id="node4" class="node">
<title>aabb</title>
<ellipse fill="none" stroke="yellow" cx="277.35" cy="-18" rx="38.99" ry="18"/>
<text text-anchor="middle" x="277.35" y="-14.3" font-family="Times,serif" font-size="14.00"> aabb 4 </text>
</g>
<!-- aaab&#45;&#45;aabb -->
<g id="edge3" class="edge">
<title>aaab&#45;&#45;aabb</title>
<path fill="none" stroke="black" d="M239.71,-72.76C247.51,-61.62 257.84,-46.87 265.7,-35.63"/>
</g>
<!-- abbb -->
<g id="node6" class="node">
<title>abbb</title>
<ellipse fill="none" stroke="blue" cx="324.35" cy="-90" rx="39.79" ry="18"/>
<text text-anchor="middle" x="324.35" y="-86.3" font-family="Times,serif" font-size="14.00"> abbb 3 </text>
</g>
<!-- abba&#45;&#45;abbb -->
<g id="edge12" class="edge">
<title>abba&#45;&#45;abbb</title>
<path fill="none" stroke="black" d="M114.91,-29.95C120.97,-32.06 127.34,-34.18 133.35,-36 195.65,-54.89 212.98,-53.31 275.35,-72 281.56,-73.86 288.15,-76.02 294.42,-78.16"/>
</g>
<!-- abab&#45;&#45;abbb -->
<g id="edge11" class="edge">
<title>abab&#45;&#45;abbb</title>
<path fill="none" stroke="black" d="M207.05,-31.58C232.9,-44.24 272.53,-63.64 298.45,-76.32"/>
</g>
<!-- aabb&#45;&#45;abbb -->
<g id="edge7" class="edge">
<title>aabb&#45;&#45;abbb</title>
<path fill="none" stroke="black" d="M288.4,-35.47C295.88,-46.6 305.72,-61.25 313.21,-72.41"/>
</g>
<!-- abaa -->
<g id="node7" class="node">
<title>abaa</title>
<ellipse fill="none" stroke="blue" cx="133.35" cy="-90" rx="38.19" ry="18"/>
<text text-anchor="middle" x="133.35" y="-86.3" font-family="Times,serif" font-size="14.00"> abaa 3 </text>
</g>
<!-- aabb&#45;&#45;abaa -->
<g id="edge8" class="edge">
<title>aabb&#45;&#45;abaa</title>
<path fill="none" stroke="black" d="M251.34,-31.64C225.2,-44.35 185.14,-63.82 159.09,-76.49"/>
</g>
<!-- aaba -->
<g id="node5" class="node">
<title>aaba</title>
<ellipse fill="none" stroke="blue" cx="38.35" cy="-90" rx="38.19" ry="18"/>
<text text-anchor="middle" x="38.35" y="-86.3" font-family="Times,serif" font-size="14.00"> aaba 3 </text>
</g>
<!-- aaba&#45;&#45;abba -->
<g id="edge6" class="edge">
<title>aaba&#45;&#45;abba</title>
<path fill="none" stroke="black" d="M49.48,-72.41C56.98,-61.25 66.81,-46.6 74.29,-35.47"/>
</g>
<!-- aaba&#45;&#45;abab -->
<g id="edge5" class="edge">
<title>aaba&#45;&#45;abab</title>
<path fill="none" stroke="black" d="M63.91,-76.49C89.78,-63.82 129.56,-44.35 155.52,-31.64"/>
</g>
<!-- aaba&#45;&#45;aabb -->
<g id="edge4" class="edge">
<title>aaba&#45;&#45;aabb</title>
<path fill="none" stroke="black" d="M67.39,-78.22C73.61,-76.05 80.17,-73.87 86.35,-72 149.08,-53.04 166.61,-54.96 229.35,-36 235.35,-34.18 241.72,-32.07 247.79,-29.96"/>
</g>
<!-- abaa&#45;&#45;abba -->
<g id="edge9" class="edge">
<title>abaa&#45;&#45;abba</title>
<path fill="none" stroke="black" d="M122.21,-72.76C114.57,-61.62 104.45,-46.87 96.75,-35.63"/>
</g>
<!-- abaa&#45;&#45;abab -->
<g id="edge10" class="edge">
<title>abaa&#45;&#45;abab</title>
<path fill="none" stroke="black" d="M144.48,-72.76C152.12,-61.62 162.24,-46.87 169.94,-35.63"/>
</g>
</g>
</svg>
