<?xml version="1.0" encoding="UTF-8" standalone="no"?>
<!DOCTYPE svg PUBLIC "-//W3C//DTD SVG 1.1//EN"
 "http://www.w3.org/Graphics/SVG/1.1/DTD/svg11.dtd">
<!-- Generated by graphviz version 6.0.2 (0)
 -->
<!-- Pages: 1 -->
<svg width="561pt" height="78pt"
 viewBox="0.00 0.00 560.69 78.34" xmlns="http://www.w3.org/2000/svg" xmlns:xlink="http://www.w3.org/1999/xlink">
<g id="graph0" class="graph" transform="scale(1 1) rotate(0) translate(4 74.34)">
<polygon fill="white" stroke="none" points="-4,4 -4,-74.34 556.69,-74.34 556.69,4 -4,4"/>
<!-- aabc -->
<g id="node1" class="node">
<title>aabc</title>
<ellipse fill="none" stroke="yellow" cx="38.35" cy="-18" rx="38.19" ry="18"/>
<text text-anchor="middle" x="38.35" y="-14.3" font-family="Times,serif" font-size="14.00"> aabc 4 </text>
</g>
<!-- abac -->
<g id="node2" class="node">
<title>abac</title>
<ellipse fill="none" stroke="yellow" cx="133.35" cy="-18" rx="38.19" ry="18"/>
<text text-anchor="middle" x="133.35" y="-14.3" font-family="Times,serif" font-size="14.00"> abac 4 </text>
</g>
<!-- aabc&#45;&#45;abac -->
<g id="edge1" class="edge">
<title>aabc&#45;&#45;abac</title>
<path fill="none" stroke="black" d="M76.94,-18C82.82,-18 88.69,-18 94.57,-18"/>
</g>
<!-- abbc -->
<g id="node3" class="node">
<title>abbc</title>
<ellipse fill="none" stroke="yellow" cx="323.35" cy="-18" rx="38.99" ry="18"/>
<text text-anchor="middle" x="323.35" y="-14.3" font-family="Times,serif" font-size="14.00"> abbc 4 </text>
</g>
<!-- aabc&#45;&#45;abbc -->
<g id="edge2" class="edge">
<title>aabc&#45;&#45;abbc</title>
<path fill="none" stroke="black" d="M57.32,-33.81C67.82,-41.53 81.52,-50 95.35,-54 168.35,-75.12 193.34,-75.12 266.35,-54 280.18,-50 293.87,-41.53 304.38,-33.81"/>
</g>
<!-- abcb -->
<g id="node4" class="node">
<title>abcb</title>
<ellipse fill="none" stroke="yellow" cx="419.35" cy="-18" rx="38.99" ry="18"/>
<text text-anchor="middle" x="419.35" y="-14.3" font-family="Times,serif" font-size="14.00"> abcb 4 </text>
</g>
<!-- aabc&#45;&#45;abcb -->
<g id="edge3" class="edge">
<title>aabc&#45;&#45;abcb</title>
<path fill="none" stroke="black" d="M57.32,-33.81C67.82,-41.53 81.52,-50 95.35,-54 152.34,-70.49 305.35,-70.49 362.35,-54 376.18,-50 389.87,-41.53 400.38,-33.81"/>
</g>
<!-- abca -->
<g id="node5" class="node">
<title>abca</title>
<ellipse fill="none" stroke="yellow" cx="228.35" cy="-18" rx="38.19" ry="18"/>
<text text-anchor="middle" x="228.35" y="-14.3" font-family="Times,serif" font-size="14.00"> abca 4 </text>
</g>
<!-- aabc&#45;&#45;abca -->
<g id="edge4" class="edge">
<title>aabc&#45;&#45;abca</title>
<path fill="none" stroke="black" d="M57.32,-33.81C67.82,-41.53 81.52,-50 95.35,-54 127.79,-63.39 138.9,-63.39 171.35,-54 185.18,-50 198.87,-41.53 209.38,-33.81"/>
</g>
<!-- abac&#45;&#45;abbc -->
<g id="edge5" class="edge">
<title>abac&#45;&#45;abbc</title>
<path fill="none" stroke="black" d="M152.32,-33.81C162.82,-41.53 176.52,-50 190.35,-54 222.79,-63.39 233.9,-63.39 266.35,-54 280.18,-50 293.87,-41.53 304.38,-33.81"/>
</g>
<!-- abac&#45;&#45;abca -->
<g id="edge7" class="edge">
<title>abac&#45;&#45;abca</title>
<path fill="none" stroke="black" d="M171.94,-18C177.82,-18 183.69,-18 189.57,-18"/>
</g>
<!-- abcc -->
<g id="node6" class="node">
<title>abcc</title>
<ellipse fill="none" stroke="yellow" cx="514.35" cy="-18" rx="38.19" ry="18"/>
<text text-anchor="middle" x="514.35" y="-14.3" font-family="Times,serif" font-size="14.00"> abcc 4 </text>
</g>
<!-- abac&#45;&#45;abcc -->
<g id="edge6" class="edge">
<title>abac&#45;&#45;abcc</title>
<path fill="none" stroke="black" d="M152.32,-33.81C162.82,-41.53 176.52,-50 190.35,-54 247.56,-70.55 401.2,-70.78 458.35,-54 471.99,-49.99 485.45,-41.53 495.75,-33.81"/>
</g>
<!-- abbc&#45;&#45;abcb -->
<g id="edge9" class="edge">
<title>abbc&#45;&#45;abcb</title>
<path fill="none" stroke="black" d="M362.35,-18C368.28,-18 374.22,-18 380.16,-18"/>
</g>
<!-- abbc&#45;&#45;abcc -->
<g id="edge8" class="edge">
<title>abbc&#45;&#45;abcc</title>
<path fill="none" stroke="black" d="M342.32,-33.81C352.82,-41.53 366.52,-50 380.35,-54 413.65,-63.64 425.08,-63.77 458.35,-54 471.99,-49.99 485.45,-41.53 495.75,-33.81"/>
</g>
<!-- abcb&#45;&#45;abcc -->
<g id="edge12" class="edge">
<title>abcb&#45;&#45;abcc</title>
<path fill="none" stroke="black" d="M458.68,-18C464.34,-18 469.99,-18 475.64,-18"/>
</g>
<!-- abca&#45;&#45;abcb -->
<g id="edge10" class="edge">
<title>abca&#45;&#45;abcb</title>
<path fill="none" stroke="black" d="M246.94,-33.81C257.25,-41.53 270.71,-49.99 284.35,-54 317.61,-63.77 329.05,-63.64 362.35,-54 376.18,-50 389.87,-41.53 400.38,-33.81"/>
</g>
<!-- abca&#45;&#45;abcc -->
<g id="edge11" class="edge">
<title>abca&#45;&#45;abcc</title>
<path fill="none" stroke="black" d="M246.94,-33.81C257.25,-41.53 270.71,-49.99 284.35,-54 358.55,-75.79 384.15,-75.79 458.35,-54 471.99,-49.99 485.45,-41.53 495.75,-33.81"/>
</g>
</g>
</svg>
