<?xml version="1.0" encoding="UTF-8" standalone="no"?>
<!DOCTYPE svg PUBLIC "-//W3C//DTD SVG 1.1//EN"
 "http://www.w3.org/Graphics/SVG/1.1/DTD/svg11.dtd">
<!-- Generated by graphviz version 6.0.2 (0)
 -->
<!-- Pages: 1 -->
<svg width="1030pt" height="80pt"
 viewBox="0.00 0.00 1030.44 79.80" xmlns="http://www.w3.org/2000/svg" xmlns:xlink="http://www.w3.org/1999/xlink">
<g id="graph0" class="graph" transform="scale(1 1) rotate(0) translate(4 75.8)">
<polygon fill="white" stroke="none" points="-4,4 -4,-75.8 1026.44,-75.8 1026.44,4 -4,4"/>
<!-- aabcd -->
<g id="node1" class="node">
<title>aabcd</title>
<ellipse fill="none" stroke="black" cx="42.9" cy="-18" rx="42.79" ry="18"/>
<text text-anchor="middle" x="42.9" y="-14.3" font-family="Times,serif" font-size="14.00"> aabcd 6 </text>
</g>
<!-- abcbd -->
<g id="node2" class="node">
<title>abcbd</title>
<ellipse fill="none" stroke="black" cx="562.9" cy="-18" rx="43.59" ry="18"/>
<text text-anchor="middle" x="562.9" y="-14.3" font-family="Times,serif" font-size="14.00"> abcbd 6 </text>
</g>
<!-- aabcd&#45;&#45;abcbd -->
<g id="edge1" class="edge">
<title>aabcd&#45;&#45;abcbd</title>
<path fill="none" stroke="black" d="M63.37,-33.83C74.65,-41.55 89.31,-50.02 103.9,-54 189.22,-77.3 416.58,-77.3 501.9,-54 516.37,-50.05 530.9,-41.69 542.15,-34.02"/>
</g>
<!-- abcad -->
<g id="node3" class="node">
<title>abcad</title>
<ellipse fill="none" stroke="black" cx="354.9" cy="-18" rx="42.79" ry="18"/>
<text text-anchor="middle" x="354.9" y="-14.3" font-family="Times,serif" font-size="14.00"> abcad 6 </text>
</g>
<!-- aabcd&#45;&#45;abcad -->
<g id="edge2" class="edge">
<title>aabcd&#45;&#45;abcad</title>
<path fill="none" stroke="black" d="M63.37,-33.83C74.65,-41.55 89.31,-50.02 103.9,-54 185.79,-76.36 213.09,-76.66 294.9,-54 309.18,-50.04 323.47,-41.68 334.53,-34.01"/>
</g>
<!-- abcdb -->
<g id="node4" class="node">
<title>abcdb</title>
<ellipse fill="none" stroke="black" cx="770.9" cy="-18" rx="43.59" ry="18"/>
<text text-anchor="middle" x="770.9" y="-14.3" font-family="Times,serif" font-size="14.00"> abcdb 6 </text>
</g>
<!-- aabcd&#45;&#45;abcdb -->
<g id="edge3" class="edge">
<title>aabcd&#45;&#45;abcdb</title>
<path fill="none" stroke="black" d="M63.37,-33.83C74.65,-41.55 89.31,-50.02 103.9,-54 168.85,-71.74 644.94,-71.74 709.9,-54 724.37,-50.05 738.9,-41.69 750.15,-34.02"/>
</g>
<!-- abacd -->
<g id="node5" class="node">
<title>abacd</title>
<ellipse fill="none" stroke="black" cx="146.9" cy="-18" rx="42.79" ry="18"/>
<text text-anchor="middle" x="146.9" y="-14.3" font-family="Times,serif" font-size="14.00"> abacd 6 </text>
</g>
<!-- aabcd&#45;&#45;abacd -->
<g id="edge4" class="edge">
<title>aabcd&#45;&#45;abacd</title>
<path fill="none" stroke="black" d="M85.96,-18C91.83,-18 97.7,-18 103.57,-18"/>
</g>
<!-- abcda -->
<g id="node6" class="node">
<title>abcda</title>
<ellipse fill="none" stroke="black" cx="458.9" cy="-18" rx="42.79" ry="18"/>
<text text-anchor="middle" x="458.9" y="-14.3" font-family="Times,serif" font-size="14.00"> abcda 6 </text>
</g>
<!-- aabcd&#45;&#45;abcda -->
<g id="edge5" class="edge">
<title>aabcd&#45;&#45;abcda</title>
<path fill="none" stroke="black" d="M63.37,-33.83C74.65,-41.55 89.31,-50.02 103.9,-54 166.92,-71.21 334.87,-71.21 397.9,-54 412.49,-50.02 427.14,-41.55 438.42,-33.83"/>
</g>
<!-- abbcd -->
<g id="node7" class="node">
<title>abbcd</title>
<ellipse fill="none" stroke="black" cx="250.9" cy="-18" rx="43.59" ry="18"/>
<text text-anchor="middle" x="250.9" y="-14.3" font-family="Times,serif" font-size="14.00"> abbcd 6 </text>
</g>
<!-- aabcd&#45;&#45;abbcd -->
<g id="edge6" class="edge">
<title>aabcd&#45;&#45;abbcd</title>
<path fill="none" stroke="black" d="M63.37,-33.83C74.65,-41.55 89.31,-50.02 103.9,-54 140.77,-64.07 153.02,-64.07 189.9,-54 204.37,-50.05 218.9,-41.69 230.15,-34.02"/>
</g>
<!-- abcbd&#45;&#45;abcdb -->
<g id="edge20" class="edge">
<title>abcbd&#45;&#45;abcdb</title>
<path fill="none" stroke="black" d="M583.64,-34.02C594.89,-41.69 609.42,-50.05 623.9,-54 660.77,-64.07 673.02,-64.07 709.9,-54 724.37,-50.05 738.9,-41.69 750.15,-34.02"/>
</g>
<!-- abccd -->
<g id="node9" class="node">
<title>abccd</title>
<ellipse fill="none" stroke="black" cx="666.9" cy="-18" rx="42.79" ry="18"/>
<text text-anchor="middle" x="666.9" y="-14.3" font-family="Times,serif" font-size="14.00"> abccd 6 </text>
</g>
<!-- abcbd&#45;&#45;abccd -->
<g id="edge22" class="edge">
<title>abcbd&#45;&#45;abccd</title>
<path fill="none" stroke="black" d="M606.77,-18C612.41,-18 618.04,-18 623.68,-18"/>
</g>
<!-- abcdd -->
<g id="node10" class="node">
<title>abcdd</title>
<ellipse fill="none" stroke="black" cx="978.9" cy="-18" rx="43.59" ry="18"/>
<text text-anchor="middle" x="978.9" y="-14.3" font-family="Times,serif" font-size="14.00"> abcdd 6 </text>
</g>
<!-- abcbd&#45;&#45;abcdd -->
<g id="edge21" class="edge">
<title>abcbd&#45;&#45;abcdd</title>
<path fill="none" stroke="black" d="M583.64,-34.02C594.89,-41.69 609.42,-50.05 623.9,-54 686.92,-71.21 854.87,-71.21 917.9,-54 932.37,-50.05 946.9,-41.69 958.15,-34.02"/>
</g>
<!-- abcad&#45;&#45;abcbd -->
<g id="edge16" class="edge">
<title>abcad&#45;&#45;abcbd</title>
<path fill="none" stroke="black" d="M375.37,-33.83C386.65,-41.55 401.31,-50.02 415.9,-54 452.77,-64.07 465.02,-64.07 501.9,-54 516.37,-50.05 530.9,-41.69 542.15,-34.02"/>
</g>
<!-- abcad&#45;&#45;abcda -->
<g id="edge18" class="edge">
<title>abcad&#45;&#45;abcda</title>
<path fill="none" stroke="black" d="M397.96,-18C403.83,-18 409.7,-18 415.57,-18"/>
</g>
<!-- abcad&#45;&#45;abccd -->
<g id="edge19" class="edge">
<title>abcad&#45;&#45;abccd</title>
<path fill="none" stroke="black" d="M375.37,-33.83C386.65,-41.55 401.31,-50.02 415.9,-54 497.79,-76.36 525.09,-76.66 606.9,-54 621.18,-50.04 635.47,-41.68 646.53,-34.01"/>
</g>
<!-- abcad&#45;&#45;abcdd -->
<g id="edge17" class="edge">
<title>abcad&#45;&#45;abcdd</title>
<path fill="none" stroke="black" d="M375.37,-33.83C386.65,-41.55 401.31,-50.02 415.9,-54 469.7,-68.69 864.09,-68.69 917.9,-54 932.37,-50.05 946.9,-41.69 958.15,-34.02"/>
</g>
<!-- abcdc -->
<g id="node8" class="node">
<title>abcdc</title>
<ellipse fill="none" stroke="black" cx="874.9" cy="-18" rx="42.79" ry="18"/>
<text text-anchor="middle" x="874.9" y="-14.3" font-family="Times,serif" font-size="14.00"> abcdc 6 </text>
</g>
<!-- abcdb&#45;&#45;abcdc -->
<g id="edge28" class="edge">
<title>abcdb&#45;&#45;abcdc</title>
<path fill="none" stroke="black" d="M814.77,-18C820.41,-18 826.04,-18 831.68,-18"/>
</g>
<!-- abcdb&#45;&#45;abcdd -->
<g id="edge29" class="edge">
<title>abcdb&#45;&#45;abcdd</title>
<path fill="none" stroke="black" d="M791.64,-34.02C802.89,-41.69 817.42,-50.05 831.9,-54 868.77,-64.07 881.02,-64.07 917.9,-54 932.37,-50.05 946.9,-41.69 958.15,-34.02"/>
</g>
<!-- abacd&#45;&#45;abcad -->
<g id="edge7" class="edge">
<title>abacd&#45;&#45;abcad</title>
<path fill="none" stroke="black" d="M167.26,-34.01C178.32,-41.68 192.61,-50.04 206.9,-54 244.59,-64.44 257.2,-64.44 294.9,-54 309.18,-50.04 323.47,-41.68 334.53,-34.01"/>
</g>
<!-- abacd&#45;&#45;abcda -->
<g id="edge9" class="edge">
<title>abacd&#45;&#45;abcda</title>
<path fill="none" stroke="black" d="M167.26,-34.01C178.32,-41.68 192.61,-50.04 206.9,-54 288.7,-76.66 316.01,-76.36 397.9,-54 412.49,-50.02 427.14,-41.55 438.42,-33.83"/>
</g>
<!-- abacd&#45;&#45;abbcd -->
<g id="edge10" class="edge">
<title>abacd&#45;&#45;abbcd</title>
<path fill="none" stroke="black" d="M189.96,-18C195.67,-18 201.38,-18 207.1,-18"/>
</g>
<!-- abacd&#45;&#45;abcdc -->
<g id="edge8" class="edge">
<title>abacd&#45;&#45;abcdc</title>
<path fill="none" stroke="black" d="M167.26,-34.01C178.32,-41.68 192.61,-50.04 206.9,-54 272,-72.03 749.79,-72.03 814.9,-54 829.18,-50.04 843.47,-41.68 854.53,-34.01"/>
</g>
<!-- abacd&#45;&#45;abccd -->
<g id="edge11" class="edge">
<title>abacd&#45;&#45;abccd</title>
<path fill="none" stroke="black" d="M167.26,-34.01C178.32,-41.68 192.61,-50.04 206.9,-54 292.56,-77.73 521.23,-77.73 606.9,-54 621.18,-50.04 635.47,-41.68 646.53,-34.01"/>
</g>
<!-- abcda&#45;&#45;abcdb -->
<g id="edge25" class="edge">
<title>abcda&#45;&#45;abcdb</title>
<path fill="none" stroke="black" d="M479.26,-34.01C490.32,-41.68 504.61,-50.04 518.9,-54 600.7,-76.66 628.01,-76.36 709.9,-54 724.37,-50.05 738.9,-41.69 750.15,-34.02"/>
</g>
<!-- abcda&#45;&#45;abcdc -->
<g id="edge26" class="edge">
<title>abcda&#45;&#45;abcdc</title>
<path fill="none" stroke="black" d="M479.26,-34.01C490.32,-41.68 504.61,-50.04 518.9,-54 582.29,-71.56 751.51,-71.56 814.9,-54 829.18,-50.04 843.47,-41.68 854.53,-34.01"/>
</g>
<!-- abcda&#45;&#45;abcdd -->
<g id="edge27" class="edge">
<title>abcda&#45;&#45;abcdd</title>
<path fill="none" stroke="black" d="M479.26,-34.01C490.32,-41.68 504.61,-50.04 518.9,-54 604.35,-77.67 832.36,-77.36 917.9,-54 932.37,-50.05 946.9,-41.69 958.15,-34.02"/>
</g>
<!-- abbcd&#45;&#45;abcbd -->
<g id="edge12" class="edge">
<title>abbcd&#45;&#45;abcbd</title>
<path fill="none" stroke="black" d="M271.64,-34.02C282.89,-41.69 297.42,-50.05 311.9,-54 393.36,-76.25 420.43,-76.25 501.9,-54 516.37,-50.05 530.9,-41.69 542.15,-34.02"/>
</g>
<!-- abbcd&#45;&#45;abcdb -->
<g id="edge13" class="edge">
<title>abbcd&#45;&#45;abcdb</title>
<path fill="none" stroke="black" d="M271.64,-34.02C282.89,-41.69 297.42,-50.05 311.9,-54 397.22,-77.3 624.58,-77.3 709.9,-54 724.37,-50.05 738.9,-41.69 750.15,-34.02"/>
</g>
<!-- abbcd&#45;&#45;abcdc -->
<g id="edge14" class="edge">
<title>abbcd&#45;&#45;abcdc</title>
<path fill="none" stroke="black" d="M271.64,-34.02C282.89,-41.69 297.42,-50.05 311.9,-54 365.81,-68.72 761.04,-68.92 814.9,-54 829.18,-50.04 843.47,-41.68 854.53,-34.01"/>
</g>
<!-- abbcd&#45;&#45;abccd -->
<g id="edge15" class="edge">
<title>abbcd&#45;&#45;abccd</title>
<path fill="none" stroke="black" d="M271.64,-34.02C282.89,-41.69 297.42,-50.05 311.9,-54 375.14,-71.27 543.72,-71.5 606.9,-54 621.18,-50.04 635.47,-41.68 646.53,-34.01"/>
</g>
<!-- abcdc&#45;&#45;abcdd -->
<g id="edge30" class="edge">
<title>abcdc&#45;&#45;abcdd</title>
<path fill="none" stroke="black" d="M917.96,-18C923.67,-18 929.38,-18 935.1,-18"/>
</g>
<!-- abccd&#45;&#45;abcdc -->
<g id="edge23" class="edge">
<title>abccd&#45;&#45;abcdc</title>
<path fill="none" stroke="black" d="M687.26,-34.01C698.32,-41.68 712.61,-50.04 726.9,-54 764.59,-64.44 777.2,-64.44 814.9,-54 829.18,-50.04 843.47,-41.68 854.53,-34.01"/>
</g>
<!-- abccd&#45;&#45;abcdd -->
<g id="edge24" class="edge">
<title>abccd&#45;&#45;abcdd</title>
<path fill="none" stroke="black" d="M687.26,-34.01C698.32,-41.68 712.61,-50.04 726.9,-54 808.7,-76.66 836.01,-76.36 917.9,-54 932.37,-50.05 946.9,-41.69 958.15,-34.02"/>
</g>
</g>
</svg>
