<?xml version="1.0" encoding="UTF-8" standalone="no"?>
<!DOCTYPE svg PUBLIC "-//W3C//DTD SVG 1.1//EN"
 "http://www.w3.org/Graphics/SVG/1.1/DTD/svg11.dtd">
<!-- Generated by graphviz version 6.0.2 (0)
 -->
<!-- Pages: 1 -->
<svg width="1542pt" height="116pt"
 viewBox="0.00 0.00 1541.79 116.00" xmlns="http://www.w3.org/2000/svg" xmlns:xlink="http://www.w3.org/1999/xlink">
<g id="graph0" class="graph" transform="scale(1 1) rotate(0) translate(4 112)">
<polygon fill="white" stroke="none" points="-4,4 -4,-112 1537.79,-112 1537.79,4 -4,4"/>
<!-- aaabc -->
<g id="node1" class="node">
<title>aaabc</title>
<ellipse fill="none" stroke="black" cx="252.9" cy="-90" rx="42.49" ry="18"/>
<text text-anchor="middle" x="252.9" y="-86.3" font-family="Times,serif" font-size="14.00"> aaabc 6 </text>
</g>
<!-- aabbc -->
<g id="node2" class="node">
<title>aabbc</title>
<ellipse fill="none" stroke="green" cx="250.9" cy="-18" rx="42.79" ry="18"/>
<text text-anchor="middle" x="250.9" y="-14.3" font-family="Times,serif" font-size="14.00"> aabbc 8 </text>
</g>
<!-- aaabc&#45;&#45;aabbc -->
<g id="edge1" class="edge">
<title>aaabc&#45;&#45;aabbc</title>
<path fill="none" stroke="black" d="M252.4,-71.7C252.09,-60.85 251.69,-46.92 251.38,-36.1"/>
</g>
<!-- abacb -->
<g id="node3" class="node">
<title>abacb</title>
<ellipse fill="none" stroke="green" cx="354.9" cy="-18" rx="42.79" ry="18"/>
<text text-anchor="middle" x="354.9" y="-14.3" font-family="Times,serif" font-size="14.00"> abacb 8 </text>
</g>
<!-- aaabc&#45;&#45;abacb -->
<g id="edge2" class="edge">
<title>aaabc&#45;&#45;abacb</title>
<path fill="none" stroke="black" d="M274.53,-74.15C291.84,-62.28 315.99,-45.7 333.3,-33.82"/>
</g>
<!-- ababc -->
<g id="node4" class="node">
<title>ababc</title>
<ellipse fill="none" stroke="green" cx="42.9" cy="-18" rx="42.79" ry="18"/>
<text text-anchor="middle" x="42.9" y="-14.3" font-family="Times,serif" font-size="14.00"> ababc 8 </text>
</g>
<!-- aaabc&#45;&#45;ababc -->
<g id="edge3" class="edge">
<title>aaabc&#45;&#45;ababc</title>
<path fill="none" stroke="black" d="M220.54,-78.22C181.2,-65.1 115.15,-43.09 75.63,-29.91"/>
</g>
<!-- abbac -->
<g id="node5" class="node">
<title>abbac</title>
<ellipse fill="none" stroke="green" cx="146.9" cy="-18" rx="42.79" ry="18"/>
<text text-anchor="middle" x="146.9" y="-14.3" font-family="Times,serif" font-size="14.00"> abbac 8 </text>
</g>
<!-- aaabc&#45;&#45;abbac -->
<g id="edge4" class="edge">
<title>aaabc&#45;&#45;abbac</title>
<path fill="none" stroke="black" d="M230.93,-74.5C212.74,-62.48 187.02,-45.49 168.83,-33.49"/>
</g>
<!-- aabcb -->
<g id="node6" class="node">
<title>aabcb</title>
<ellipse fill="none" stroke="green" cx="458.9" cy="-18" rx="42.79" ry="18"/>
<text text-anchor="middle" x="458.9" y="-14.3" font-family="Times,serif" font-size="14.00"> aabcb 8 </text>
</g>
<!-- aaabc&#45;&#45;aabcb -->
<g id="edge5" class="edge">
<title>aaabc&#45;&#45;aabcb</title>
<path fill="none" stroke="black" d="M285.08,-78.06C323.67,-64.95 387.96,-43.11 426.6,-29.98"/>
</g>
<!-- abbca -->
<g id="node7" class="node">
<title>abbca</title>
<ellipse fill="none" stroke="green" cx="562.9" cy="-18" rx="42.79" ry="18"/>
<text text-anchor="middle" x="562.9" y="-14.3" font-family="Times,serif" font-size="14.00"> abbca 8 </text>
</g>
<!-- aaabc&#45;&#45;abbca -->
<g id="edge6" class="edge">
<title>aaabc&#45;&#45;abbca</title>
<path fill="none" stroke="black" d="M284.31,-77.93C291.05,-75.78 298.17,-73.68 304.9,-72 395.08,-49.5 420.72,-58.5 510.9,-36 517.53,-34.34 524.55,-32.28 531.21,-30.16"/>
</g>
<!-- aabbc&#45;&#45;aabcb -->
<g id="edge16" class="edge">
<title>aabbc&#45;&#45;aabcb</title>
<path fill="none" stroke="black" d="M271.37,-33.83C282.65,-41.55 297.31,-50.02 311.9,-54 348.77,-64.07 361.02,-64.07 397.9,-54 412.49,-50.02 427.14,-41.55 438.42,-33.83"/>
</g>
<!-- aabcc -->
<g id="node9" class="node">
<title>aabcc</title>
<ellipse fill="none" stroke="green" cx="769.9" cy="-18" rx="42.49" ry="18"/>
<text text-anchor="middle" x="769.9" y="-14.3" font-family="Times,serif" font-size="14.00"> aabcc 8 </text>
</g>
<!-- aabbc&#45;&#45;aabcc -->
<g id="edge13" class="edge">
<title>aabbc&#45;&#45;aabcc</title>
<path fill="none" stroke="black" d="M271.37,-33.83C282.65,-41.55 297.31,-50.02 311.9,-54 397.22,-77.3 624.66,-77.61 709.9,-54 724.18,-50.04 738.47,-41.68 749.53,-34.01"/>
</g>
<!-- abccb -->
<g id="node12" class="node">
<title>abccb</title>
<ellipse fill="none" stroke="green" cx="1282.9" cy="-18" rx="42.79" ry="18"/>
<text text-anchor="middle" x="1282.9" y="-14.3" font-family="Times,serif" font-size="14.00"> abccb 8 </text>
</g>
<!-- aabbc&#45;&#45;abccb -->
<g id="edge14" class="edge">
<title>aabbc&#45;&#45;abccb</title>
<path fill="none" stroke="black" d="M271.37,-33.83C282.65,-41.55 297.31,-50.02 311.9,-54 360.67,-67.32 1173.13,-67.32 1221.9,-54 1236.49,-50.02 1251.14,-41.55 1262.42,-33.83"/>
</g>
<!-- abaac -->
<g id="node13" class="node">
<title>abaac</title>
<ellipse fill="none" stroke="black" cx="458.9" cy="-90" rx="42.49" ry="18"/>
<text text-anchor="middle" x="458.9" y="-86.3" font-family="Times,serif" font-size="14.00"> abaac 6 </text>
</g>
<!-- aabbc&#45;&#45;abaac -->
<g id="edge15" class="edge">
<title>aabbc&#45;&#45;abaac</title>
<path fill="none" stroke="black" d="M283.32,-29.91C322.46,-43.09 387.88,-65.1 426.85,-78.22"/>
</g>
<!-- abbbc -->
<g id="node14" class="node">
<title>abbbc</title>
<ellipse fill="none" stroke="black" cx="664.9" cy="-90" rx="43.59" ry="18"/>
<text text-anchor="middle" x="664.9" y="-86.3" font-family="Times,serif" font-size="14.00"> abbbc 6 </text>
</g>
<!-- aabbc&#45;&#45;abbbc -->
<g id="edge17" class="edge">
<title>aabbc&#45;&#45;abbbc</title>
<path fill="none" stroke="black" d="M282.24,-30.36C288.99,-32.49 296.12,-34.51 302.9,-36 437.95,-65.63 476.76,-42.75 611.9,-72 618.79,-73.49 626.06,-75.52 632.94,-77.65"/>
</g>
<!-- abcca -->
<g id="node15" class="node">
<title>abcca</title>
<ellipse fill="none" stroke="green" cx="975.9" cy="-18" rx="42.49" ry="18"/>
<text text-anchor="middle" x="975.9" y="-14.3" font-family="Times,serif" font-size="14.00"> abcca 8 </text>
</g>
<!-- aabbc&#45;&#45;abcca -->
<g id="edge18" class="edge">
<title>aabbc&#45;&#45;abcca</title>
<path fill="none" stroke="black" d="M271.37,-33.83C282.65,-41.55 297.31,-50.02 311.9,-54 376.64,-71.68 851.22,-71.91 915.9,-54 930.18,-50.04 944.47,-41.68 955.53,-34.01"/>
</g>
<!-- abcab -->
<g id="node10" class="node">
<title>abcab</title>
<ellipse fill="none" stroke="green" cx="872.9" cy="-18" rx="42.79" ry="18"/>
<text text-anchor="middle" x="872.9" y="-14.3" font-family="Times,serif" font-size="14.00"> abcab 8 </text>
</g>
<!-- abacb&#45;&#45;abcab -->
<g id="edge50" class="edge">
<title>abacb&#45;&#45;abcab</title>
<path fill="none" stroke="black" d="M375.37,-33.83C386.65,-41.55 401.31,-50.02 415.9,-54 500.79,-77.18 727,-77.18 811.9,-54 826.49,-50.02 841.14,-41.55 852.42,-33.83"/>
</g>
<!-- abacb&#45;&#45;abccb -->
<g id="edge49" class="edge">
<title>abacb&#45;&#45;abccb</title>
<path fill="none" stroke="black" d="M375.37,-33.83C386.65,-41.55 401.31,-50.02 415.9,-54 502.29,-77.59 1135.5,-77.59 1221.9,-54 1236.49,-50.02 1251.14,-41.55 1262.42,-33.83"/>
</g>
<!-- abbcb -->
<g id="node19" class="node">
<title>abbcb</title>
<ellipse fill="none" stroke="black" cx="872.9" cy="-90" rx="43.59" ry="18"/>
<text text-anchor="middle" x="872.9" y="-86.3" font-family="Times,serif" font-size="14.00"> abbcb 6 </text>
</g>
<!-- abacb&#45;&#45;abbcb -->
<g id="edge51" class="edge">
<title>abacb&#45;&#45;abbcb</title>
<path fill="none" stroke="black" d="M385.93,-30.43C392.76,-32.58 400.01,-34.59 406.9,-36 587.42,-72.87 639.27,-35.64 819.9,-72 826.91,-73.41 834.29,-75.43 841.25,-77.58"/>
</g>
<!-- abacc -->
<g id="node24" class="node">
<title>abacc</title>
<ellipse fill="none" stroke="green" cx="1179.9" cy="-18" rx="42.49" ry="18"/>
<text text-anchor="middle" x="1179.9" y="-14.3" font-family="Times,serif" font-size="14.00"> abacc 8 </text>
</g>
<!-- abacb&#45;&#45;abacc -->
<g id="edge52" class="edge">
<title>abacb&#45;&#45;abacc</title>
<path fill="none" stroke="black" d="M375.37,-33.83C386.65,-41.55 401.31,-50.02 415.9,-54 491.36,-74.61 1044.51,-74.88 1119.9,-54 1134.18,-50.04 1148.47,-41.68 1159.53,-34.01"/>
</g>
<!-- ababc&#45;&#45;abacb -->
<g id="edge39" class="edge">
<title>ababc&#45;&#45;abacb</title>
<path fill="none" stroke="black" d="M63.37,-33.83C74.65,-41.55 89.31,-50.02 103.9,-54 185.36,-76.25 212.43,-76.25 293.9,-54 308.49,-50.02 323.14,-41.55 334.42,-33.83"/>
</g>
<!-- abcba -->
<g id="node11" class="node">
<title>abcba</title>
<ellipse fill="none" stroke="green" cx="666.9" cy="-18" rx="42.79" ry="18"/>
<text text-anchor="middle" x="666.9" y="-14.3" font-family="Times,serif" font-size="14.00"> abcba 8 </text>
</g>
<!-- ababc&#45;&#45;abcba -->
<g id="edge41" class="edge">
<title>ababc&#45;&#45;abcba</title>
<path fill="none" stroke="black" d="M63.37,-33.83C74.65,-41.55 89.31,-50.02 103.9,-54 157.7,-68.69 552.09,-68.69 605.9,-54 620.49,-50.02 635.14,-41.55 646.42,-33.83"/>
</g>
<!-- ababc&#45;&#45;abbbc -->
<g id="edge42" class="edge">
<title>ababc&#45;&#45;abbbc</title>
<path fill="none" stroke="black" d="M73.91,-30.52C80.74,-32.67 88,-34.65 94.9,-36 320.97,-80.12 385.71,-28.51 611.9,-72 618.92,-73.35 626.31,-75.34 633.27,-77.49"/>
</g>
<!-- abcbc -->
<g id="node18" class="node">
<title>abcbc</title>
<ellipse fill="none" stroke="green" cx="1386.9" cy="-18" rx="42.79" ry="18"/>
<text text-anchor="middle" x="1386.9" y="-14.3" font-family="Times,serif" font-size="14.00"> abcbc 8 </text>
</g>
<!-- ababc&#45;&#45;abcbc -->
<g id="edge40" class="edge">
<title>ababc&#45;&#45;abcbc</title>
<path fill="none" stroke="black" d="M63.37,-33.83C74.65,-41.55 89.31,-50.02 103.9,-54 169.39,-71.88 1260.41,-71.88 1325.9,-54 1340.49,-50.02 1355.14,-41.55 1366.42,-33.83"/>
</g>
<!-- ababc&#45;&#45;abacc -->
<g id="edge43" class="edge">
<title>ababc&#45;&#45;abacc</title>
<path fill="none" stroke="black" d="M63.37,-33.83C74.65,-41.55 89.31,-50.02 103.9,-54 158.35,-68.87 1065.5,-69.07 1119.9,-54 1134.18,-50.04 1148.47,-41.68 1159.53,-34.01"/>
</g>
<!-- abbac&#45;&#45;abbca -->
<g id="edge59" class="edge">
<title>abbac&#45;&#45;abbca</title>
<path fill="none" stroke="black" d="M167.37,-33.83C178.65,-41.55 193.31,-50.02 207.9,-54 270.92,-71.21 438.87,-71.21 501.9,-54 516.49,-50.02 531.14,-41.55 542.42,-33.83"/>
</g>
<!-- abbac&#45;&#45;abcab -->
<g id="edge56" class="edge">
<title>abbac&#45;&#45;abcab</title>
<path fill="none" stroke="black" d="M167.37,-33.83C178.65,-41.55 193.31,-50.02 207.9,-54 272.64,-71.68 747.16,-71.68 811.9,-54 826.49,-50.02 841.14,-41.55 852.42,-33.83"/>
</g>
<!-- abbac&#45;&#45;abbbc -->
<g id="edge58" class="edge">
<title>abbac&#45;&#45;abbbc</title>
<path fill="none" stroke="black" d="M177.93,-30.43C184.76,-32.58 192.01,-34.59 198.9,-36 379.42,-72.87 431.27,-35.64 611.9,-72 618.91,-73.41 626.29,-75.43 633.25,-77.58"/>
</g>
<!-- abcac -->
<g id="node20" class="node">
<title>abcac</title>
<ellipse fill="none" stroke="green" cx="1077.9" cy="-18" rx="42.49" ry="18"/>
<text text-anchor="middle" x="1077.9" y="-14.3" font-family="Times,serif" font-size="14.00"> abcac 8 </text>
</g>
<!-- abbac&#45;&#45;abcac -->
<g id="edge60" class="edge">
<title>abbac&#45;&#45;abcac</title>
<path fill="none" stroke="black" d="M167.37,-33.83C178.65,-41.55 193.31,-50.02 207.9,-54 294.72,-77.71 931.16,-78.02 1017.9,-54 1032.18,-50.04 1046.47,-41.68 1057.53,-34.01"/>
</g>
<!-- abbcc -->
<g id="node22" class="node">
<title>abbcc</title>
<ellipse fill="none" stroke="green" cx="1490.9" cy="-18" rx="42.79" ry="18"/>
<text text-anchor="middle" x="1490.9" y="-14.3" font-family="Times,serif" font-size="14.00"> abbcc 8 </text>
</g>
<!-- abbac&#45;&#45;abbcc -->
<g id="edge57" class="edge">
<title>abbac&#45;&#45;abbcc</title>
<path fill="none" stroke="black" d="M167.37,-33.83C178.65,-41.55 193.31,-50.02 207.9,-54 273.39,-71.88 1364.41,-71.88 1429.9,-54 1444.49,-50.02 1459.14,-41.55 1470.42,-33.83"/>
</g>
<!-- aabcb&#45;&#45;aabcc -->
<g id="edge25" class="edge">
<title>aabcb&#45;&#45;aabcc</title>
<path fill="none" stroke="black" d="M479.37,-33.83C490.65,-41.55 505.31,-50.02 519.9,-54 601.36,-76.25 628.52,-76.54 709.9,-54 724.18,-50.04 738.47,-41.68 749.53,-34.01"/>
</g>
<!-- abaca -->
<g id="node17" class="node">
<title>abaca</title>
<ellipse fill="none" stroke="black" cx="768.9" cy="-90" rx="42.49" ry="18"/>
<text text-anchor="middle" x="768.9" y="-86.3" font-family="Times,serif" font-size="14.00"> abaca 6 </text>
</g>
<!-- aabcb&#45;&#45;abaca -->
<g id="edge26" class="edge">
<title>aabcb&#45;&#45;abaca</title>
<path fill="none" stroke="black" d="M490.59,-30.16C497.24,-32.28 504.26,-34.35 510.9,-36 601.51,-58.57 627.35,-49.17 717.9,-72 724.32,-73.62 731.11,-75.65 737.56,-77.74"/>
</g>
<!-- aabcb&#45;&#45;abcbc -->
<g id="edge27" class="edge">
<title>aabcb&#45;&#45;abcbc</title>
<path fill="none" stroke="black" d="M479.37,-33.83C490.65,-41.55 505.31,-50.02 519.9,-54 606.29,-77.59 1239.5,-77.59 1325.9,-54 1340.49,-50.02 1355.14,-41.55 1366.42,-33.83"/>
</g>
<!-- aabcb&#45;&#45;abbcb -->
<g id="edge28" class="edge">
<title>aabcb&#45;&#45;abbcb</title>
<path fill="none" stroke="black" d="M490.24,-30.36C496.99,-32.49 504.12,-34.51 510.9,-36 645.95,-65.63 684.76,-42.75 819.9,-72 826.79,-73.49 834.06,-75.52 840.94,-77.65"/>
</g>
<!-- aabcb&#45;&#45;abcac -->
<g id="edge29" class="edge">
<title>aabcb&#45;&#45;abcac</title>
<path fill="none" stroke="black" d="M479.37,-33.83C490.65,-41.55 505.31,-50.02 519.9,-54 573.28,-68.58 964.57,-68.77 1017.9,-54 1032.18,-50.04 1046.47,-41.68 1057.53,-34.01"/>
</g>
<!-- abbca&#45;&#45;abcba -->
<g id="edge65" class="edge">
<title>abbca&#45;&#45;abcba</title>
<path fill="none" stroke="black" d="M605.96,-18C611.83,-18 617.7,-18 623.57,-18"/>
</g>
<!-- abbca&#45;&#45;abcca -->
<g id="edge67" class="edge">
<title>abbca&#45;&#45;abcca</title>
<path fill="none" stroke="black" d="M583.37,-33.83C594.65,-41.55 609.31,-50.02 623.9,-54 686.49,-71.09 853.36,-71.32 915.9,-54 930.18,-50.04 944.47,-41.68 955.53,-34.01"/>
</g>
<!-- abbca&#45;&#45;abbcb -->
<g id="edge66" class="edge">
<title>abbca&#45;&#45;abbcb</title>
<path fill="none" stroke="black" d="M594.59,-30.15C601.25,-32.27 608.26,-34.34 614.9,-36 704.64,-58.43 730.09,-49.82 819.9,-72 826.65,-73.67 833.8,-75.74 840.58,-77.86"/>
</g>
<!-- abbca&#45;&#45;abbcc -->
<g id="edge64" class="edge">
<title>abbca&#45;&#45;abbcc</title>
<path fill="none" stroke="black" d="M583.37,-33.83C594.65,-41.55 609.31,-50.02 623.9,-54 710.29,-77.59 1343.5,-77.59 1429.9,-54 1444.49,-50.02 1459.14,-41.55 1470.42,-33.83"/>
</g>
<!-- aabac -->
<g id="node8" class="node">
<title>aabac</title>
<ellipse fill="none" stroke="black" cx="355.9" cy="-90" rx="42.49" ry="18"/>
<text text-anchor="middle" x="355.9" y="-86.3" font-family="Times,serif" font-size="14.00"> aabac 6 </text>
</g>
<!-- aabac&#45;&#45;aabbc -->
<g id="edge8" class="edge">
<title>aabac&#45;&#45;aabbc</title>
<path fill="none" stroke="black" d="M334.14,-74.5C316.24,-62.56 290.98,-45.72 272.99,-33.73"/>
</g>
<!-- aabac&#45;&#45;ababc -->
<g id="edge10" class="edge">
<title>aabac&#45;&#45;ababc</title>
<path fill="none" stroke="black" d="M324.49,-77.92C317.75,-75.77 310.63,-73.67 303.9,-72 212.41,-49.3 186.38,-58.7 94.9,-36 88.26,-34.35 81.24,-32.29 74.58,-30.17"/>
</g>
<!-- aabac&#45;&#45;abbac -->
<g id="edge11" class="edge">
<title>aabac&#45;&#45;abbac</title>
<path fill="none" stroke="black" d="M323.7,-78.22C284.54,-65.1 218.81,-43.09 179.48,-29.91"/>
</g>
<!-- aabac&#45;&#45;aabcc -->
<g id="edge7" class="edge">
<title>aabac&#45;&#45;aabcc</title>
<path fill="none" stroke="black" d="M386.96,-77.72C393.79,-75.56 401.03,-73.5 407.9,-72 543.82,-42.23 583.06,-66.16 718.9,-36 725.55,-34.52 732.55,-32.51 739.17,-30.38"/>
</g>
<!-- aabac&#45;&#45;abcab -->
<g id="edge9" class="edge">
<title>aabac&#45;&#45;abcab</title>
<path fill="none" stroke="black" d="M386.65,-77.66C393.56,-75.47 400.92,-73.43 407.9,-72 588.42,-35.13 640.37,-72.87 820.9,-36 827.78,-34.59 835.03,-32.58 841.86,-30.43"/>
</g>
<!-- aabac&#45;&#45;abcba -->
<g id="edge12" class="edge">
<title>aabac&#45;&#45;abcba</title>
<path fill="none" stroke="black" d="M387.31,-77.93C394.05,-75.78 401.17,-73.68 407.9,-72 498.51,-49.43 524.28,-58.57 614.9,-36 621.53,-34.35 628.55,-32.28 635.21,-30.16"/>
</g>
<!-- abcaa -->
<g id="node21" class="node">
<title>abcaa</title>
<ellipse fill="none" stroke="black" cx="976.9" cy="-90" rx="42.49" ry="18"/>
<text text-anchor="middle" x="976.9" y="-86.3" font-family="Times,serif" font-size="14.00"> abcaa 6 </text>
</g>
<!-- aabcc&#45;&#45;abcaa -->
<g id="edge30" class="edge">
<title>aabcc&#45;&#45;abcaa</title>
<path fill="none" stroke="black" d="M802.01,-29.86C840.8,-42.98 905.66,-64.91 944.55,-78.06"/>
</g>
<!-- aabcc&#45;&#45;abbcc -->
<g id="edge31" class="edge">
<title>aabcc&#45;&#45;abbcc</title>
<path fill="none" stroke="black" d="M790.26,-34.01C801.32,-41.68 815.61,-50.04 829.9,-54 894.14,-71.8 1365.58,-71.56 1429.9,-54 1444.49,-50.02 1459.14,-41.55 1470.42,-33.83"/>
</g>
<!-- abcbb -->
<g id="node23" class="node">
<title>abcbb</title>
<ellipse fill="none" stroke="black" cx="1129.9" cy="-90" rx="43.59" ry="18"/>
<text text-anchor="middle" x="1129.9" y="-86.3" font-family="Times,serif" font-size="14.00"> abcbb 6 </text>
</g>
<!-- aabcc&#45;&#45;abcbb -->
<g id="edge32" class="edge">
<title>aabcc&#45;&#45;abcbb</title>
<path fill="none" stroke="black" d="M801.23,-30.28C807.68,-32.36 814.47,-34.39 820.9,-36 833.9,-39.26 1009.87,-68.89 1090.29,-82.37"/>
</g>
<!-- aabcc&#45;&#45;abacc -->
<g id="edge33" class="edge">
<title>aabcc&#45;&#45;abacc</title>
<path fill="none" stroke="black" d="M790.26,-34.01C801.32,-41.68 815.61,-50.04 829.9,-54 892,-71.2 1057.79,-71.2 1119.9,-54 1134.18,-50.04 1148.47,-41.68 1159.53,-34.01"/>
</g>
<!-- abcab&#45;&#45;abccb -->
<g id="edge77" class="edge">
<title>abcab&#45;&#45;abccb</title>
<path fill="none" stroke="black" d="M893.37,-33.83C904.65,-41.55 919.31,-50.02 933.9,-54 995.64,-70.86 1160.16,-70.86 1221.9,-54 1236.49,-50.02 1251.14,-41.55 1262.42,-33.83"/>
</g>
<!-- abcab&#45;&#45;abcac -->
<g id="edge79" class="edge">
<title>abcab&#45;&#45;abcac</title>
<path fill="none" stroke="black" d="M893.37,-33.83C904.65,-41.55 919.31,-50.02 933.9,-54 969.91,-63.83 981.92,-63.97 1017.9,-54 1032.18,-50.04 1046.47,-41.68 1057.53,-34.01"/>
</g>
<!-- abcab&#45;&#45;abcbb -->
<g id="edge78" class="edge">
<title>abcab&#45;&#45;abcbb</title>
<path fill="none" stroke="black" d="M905.25,-29.93C911.74,-32.02 918.51,-34.13 924.9,-36 983.29,-53.08 1051.86,-70.22 1093.04,-80.21"/>
</g>
<!-- abcba&#45;&#45;abcca -->
<g id="edge84" class="edge">
<title>abcba&#45;&#45;abcca</title>
<path fill="none" stroke="black" d="M687.37,-33.83C698.65,-41.55 713.31,-50.02 727.9,-54 808.5,-76.01 835.37,-76.3 915.9,-54 930.18,-50.04 944.47,-41.68 955.53,-34.01"/>
</g>
<!-- abcba&#45;&#45;abcbc -->
<g id="edge82" class="edge">
<title>abcba&#45;&#45;abcbc</title>
<path fill="none" stroke="black" d="M687.37,-33.83C698.65,-41.55 713.31,-50.02 727.9,-54 791.99,-71.5 1261.8,-71.5 1325.9,-54 1340.49,-50.02 1355.14,-41.55 1366.42,-33.83"/>
</g>
<!-- abcba&#45;&#45;abcbb -->
<g id="edge83" class="edge">
<title>abcba&#45;&#45;abcbb</title>
<path fill="none" stroke="black" d="M698.24,-30.36C704.99,-32.49 712.12,-34.51 718.9,-36 853.95,-65.63 891,-52.63 1027.9,-72 1048.69,-74.94 1071.79,-78.75 1090.73,-82.01"/>
</g>
<!-- abccc -->
<g id="node25" class="node">
<title>abccc</title>
<ellipse fill="none" stroke="black" cx="1258.9" cy="-90" rx="42.49" ry="18"/>
<text text-anchor="middle" x="1258.9" y="-86.3" font-family="Times,serif" font-size="14.00"> abccc 6 </text>
</g>
<!-- abccb&#45;&#45;abccc -->
<g id="edge90" class="edge">
<title>abccb&#45;&#45;abccc</title>
<path fill="none" stroke="black" d="M1276.97,-36.28C1273.23,-47.18 1268.42,-61.21 1264.71,-72.05"/>
</g>
<!-- abaac&#45;&#45;ababc -->
<g id="edge35" class="edge">
<title>abaac&#45;&#45;ababc</title>
<path fill="none" stroke="black" d="M427.83,-77.72C421,-75.56 413.76,-73.5 406.9,-72 270.54,-42.16 231.26,-65.84 94.9,-36 88.12,-34.52 80.98,-32.5 74.24,-30.37"/>
</g>
<!-- abaac&#45;&#45;abbac -->
<g id="edge36" class="edge">
<title>abaac&#45;&#45;abbac</title>
<path fill="none" stroke="black" d="M427.48,-77.92C420.74,-75.77 413.62,-73.67 406.9,-72 315.85,-49.36 289.94,-58.64 198.9,-36 192.26,-34.35 185.24,-32.28 178.58,-30.17"/>
</g>
<!-- abaac&#45;&#45;abcca -->
<g id="edge38" class="edge">
<title>abaac&#45;&#45;abcca</title>
<path fill="none" stroke="black" d="M489.59,-77.48C496.21,-75.36 503.22,-73.38 509.9,-72 691.19,-34.47 743.6,-73.53 924.9,-36 931.57,-34.62 938.58,-32.64 945.2,-30.52"/>
</g>
<!-- abaac&#45;&#45;abcac -->
<g id="edge34" class="edge">
<title>abaac&#45;&#45;abcac</title>
<path fill="none" stroke="black" d="M489.3,-77.48C496,-75.33 503.12,-73.34 509.9,-72 735.84,-27.23 800.96,-80.77 1026.9,-36 1033.67,-34.66 1040.79,-32.67 1047.49,-30.52"/>
</g>
<!-- abaac&#45;&#45;abacc -->
<g id="edge37" class="edge">
<title>abaac&#45;&#45;abacc</title>
<path fill="none" stroke="black" d="M489.29,-77.42C495.99,-75.27 503.11,-73.3 509.9,-72 780.52,-19.98 858.28,-88.02 1128.9,-36 1135.68,-34.7 1142.8,-32.73 1149.5,-30.58"/>
</g>
<!-- abbbc&#45;&#45;abccb -->
<g id="edge61" class="edge">
<title>abbbc&#45;&#45;abccb</title>
<path fill="none" stroke="black" d="M696.52,-77.49C703.48,-75.34 710.87,-73.35 717.9,-72 942.33,-28.78 1006.58,-79.84 1230.9,-36 1237.79,-34.65 1245.05,-32.66 1251.88,-30.52"/>
</g>
<!-- abbbc&#45;&#45;abcbc -->
<g id="edge62" class="edge">
<title>abbbc&#45;&#45;abcbc</title>
<path fill="none" stroke="black" d="M696.51,-77.43C703.47,-75.28 710.87,-73.31 717.9,-72 987.93,-21.65 1065,-87.1 1334.9,-36 1341.8,-34.69 1349.06,-32.72 1355.89,-30.58"/>
</g>
<!-- abbbc&#45;&#45;abbcc -->
<g id="edge63" class="edge">
<title>abbbc&#45;&#45;abbcc</title>
<path fill="none" stroke="black" d="M696.22,-77.47C703.26,-75.3 710.77,-73.3 717.9,-72 1033.55,-14.52 1123.41,-94.37 1438.9,-36 1445.81,-34.72 1453.07,-32.76 1459.9,-30.62"/>
</g>
<!-- abcca&#45;&#45;abccb -->
<g id="edge88" class="edge">
<title>abcca&#45;&#45;abccb</title>
<path fill="none" stroke="black" d="M996.26,-34.01C1007.32,-41.68 1021.61,-50.04 1035.9,-54 1115.56,-76.07 1142.15,-75.78 1221.9,-54 1236.49,-50.02 1251.14,-41.55 1262.42,-33.83"/>
</g>
<!-- abcca&#45;&#45;abccc -->
<g id="edge89" class="edge">
<title>abcca&#45;&#45;abccc</title>
<path fill="none" stroke="black" d="M1007.58,-30.09C1013.94,-32.17 1020.61,-34.24 1026.9,-36 1036.34,-38.65 1159.56,-66.56 1222.47,-80.78"/>
</g>
<!-- aabca -->
<g id="node16" class="node">
<title>aabca</title>
<ellipse fill="none" stroke="black" cx="560.9" cy="-90" rx="42.49" ry="18"/>
<text text-anchor="middle" x="560.9" y="-86.3" font-family="Times,serif" font-size="14.00"> aabca 6 </text>
</g>
<!-- aabca&#45;&#45;abacb -->
<g id="edge20" class="edge">
<title>aabca&#45;&#45;abacb</title>
<path fill="none" stroke="black" d="M528.71,-78.06C490.12,-64.95 425.83,-43.11 387.2,-29.98"/>
</g>
<!-- aabca&#45;&#45;aabcb -->
<g id="edge22" class="edge">
<title>aabca&#45;&#45;aabcb</title>
<path fill="none" stroke="black" d="M539.26,-74.15C521.95,-62.28 497.8,-45.7 480.5,-33.82"/>
</g>
<!-- aabca&#45;&#45;abbca -->
<g id="edge24" class="edge">
<title>aabca&#45;&#45;abbca</title>
<path fill="none" stroke="black" d="M561.39,-71.7C561.7,-60.85 562.1,-46.92 562.41,-36.1"/>
</g>
<!-- aabca&#45;&#45;aabcc -->
<g id="edge19" class="edge">
<title>aabca&#45;&#45;aabcc</title>
<path fill="none" stroke="black" d="M593.09,-78.22C632.37,-65.06 698.37,-42.96 737.66,-29.8"/>
</g>
<!-- aabca&#45;&#45;abcab -->
<g id="edge21" class="edge">
<title>aabca&#45;&#45;abcab</title>
<path fill="none" stroke="black" d="M592.23,-77.73C598.68,-75.64 605.47,-73.61 611.9,-72 703.31,-49.03 729.41,-58.7 820.9,-36 827.53,-34.35 834.55,-32.29 841.21,-30.17"/>
</g>
<!-- aabca&#45;&#45;abcba -->
<g id="edge23" class="edge">
<title>aabca&#45;&#45;abcba</title>
<path fill="none" stroke="black" d="M582.86,-74.5C601.05,-62.48 626.78,-45.49 644.96,-33.49"/>
</g>
<!-- abaca&#45;&#45;abacb -->
<g id="edge44" class="edge">
<title>abaca&#45;&#45;abacb</title>
<path fill="none" stroke="black" d="M738.17,-77.62C731.55,-75.49 724.55,-73.48 717.9,-72 582.06,-41.84 542.82,-65.77 406.9,-36 400.12,-34.52 392.98,-32.5 386.24,-30.37"/>
</g>
<!-- abaca&#45;&#45;abbca -->
<g id="edge46" class="edge">
<title>abaca&#45;&#45;abbca</title>
<path fill="none" stroke="black" d="M736.71,-78.06C698.12,-64.95 633.83,-43.11 595.2,-29.98"/>
</g>
<!-- abaca&#45;&#45;abcca -->
<g id="edge45" class="edge">
<title>abaca&#45;&#45;abcca</title>
<path fill="none" stroke="black" d="M801.24,-78.06C840.13,-64.91 904.99,-42.98 943.78,-29.86"/>
</g>
<!-- abaca&#45;&#45;abcac -->
<g id="edge48" class="edge">
<title>abaca&#45;&#45;abcac</title>
<path fill="none" stroke="black" d="M800.24,-77.74C806.69,-75.65 813.47,-73.62 819.9,-72 910.44,-49.17 936.35,-58.83 1026.9,-36 1033.32,-34.38 1040.11,-32.35 1046.56,-30.26"/>
</g>
<!-- abaca&#45;&#45;abacc -->
<g id="edge47" class="edge">
<title>abaca&#45;&#45;abacc</title>
<path fill="none" stroke="black" d="M799.62,-77.63C806.24,-75.5 813.25,-73.48 819.9,-72 954.86,-41.98 993.93,-66.02 1128.9,-36 1135.55,-34.52 1142.55,-32.5 1149.17,-30.37"/>
</g>
<!-- abcbc&#45;&#45;abccc -->
<g id="edge87" class="edge">
<title>abcbc&#45;&#45;abccc</title>
<path fill="none" stroke="black" d="M1361.54,-32.87C1339.02,-45.18 1306.29,-63.08 1283.88,-75.34"/>
</g>
<!-- abbcb&#45;&#45;abccb -->
<g id="edge68" class="edge">
<title>abbcb&#45;&#45;abccb</title>
<path fill="none" stroke="black" d="M904.86,-77.65C911.73,-75.52 919,-73.5 925.9,-72 1059.28,-43.02 1097.59,-65.35 1230.9,-36 1237.67,-34.51 1244.81,-32.49 1251.55,-30.36"/>
</g>
<!-- abbcb&#45;&#45;abcbc -->
<g id="edge69" class="edge">
<title>abbcb&#45;&#45;abcbc</title>
<path fill="none" stroke="black" d="M904.54,-77.58C911.5,-75.43 918.89,-73.41 925.9,-72 1104.77,-35.91 1156.12,-72.59 1334.9,-36 1341.69,-34.61 1348.84,-32.63 1355.58,-30.51"/>
</g>
<!-- abbcb&#45;&#45;abbcc -->
<g id="edge70" class="edge">
<title>abbcb&#45;&#45;abbcc</title>
<path fill="none" stroke="black" d="M904.52,-77.49C911.48,-75.34 918.87,-73.35 925.9,-72 1150.33,-28.78 1214.58,-79.84 1438.9,-36 1445.79,-34.65 1453.05,-32.66 1459.88,-30.52"/>
</g>
<!-- abcac&#45;&#45;abcbc -->
<g id="edge80" class="edge">
<title>abcac&#45;&#45;abcbc</title>
<path fill="none" stroke="black" d="M1098.26,-34.01C1109.32,-41.68 1123.61,-50.04 1137.9,-54 1218.42,-76.3 1245.29,-76.01 1325.9,-54 1340.49,-50.02 1355.14,-41.55 1366.42,-33.83"/>
</g>
<!-- abcac&#45;&#45;abccc -->
<g id="edge81" class="edge">
<title>abcac&#45;&#45;abccc</title>
<path fill="none" stroke="black" d="M1107.99,-30.64C1141.42,-43.57 1195.09,-64.32 1228.6,-77.28"/>
</g>
<!-- abcaa&#45;&#45;abcab -->
<g id="edge73" class="edge">
<title>abcaa&#45;&#45;abcab</title>
<path fill="none" stroke="black" d="M955.35,-74.5C937.62,-62.56 912.59,-45.72 894.78,-33.73"/>
</g>
<!-- abcaa&#45;&#45;abcba -->
<g id="edge74" class="edge">
<title>abcaa&#45;&#45;abcba</title>
<path fill="none" stroke="black" d="M945.56,-77.74C939.11,-75.65 932.32,-73.62 925.9,-72 835.35,-49.17 809.51,-58.57 718.9,-36 712.26,-34.35 705.24,-32.28 698.59,-30.16"/>
</g>
<!-- abcaa&#45;&#45;abcca -->
<g id="edge75" class="edge">
<title>abcaa&#45;&#45;abcca</title>
<path fill="none" stroke="black" d="M976.65,-71.7C976.49,-60.85 976.3,-46.92 976.14,-36.1"/>
</g>
<!-- abcaa&#45;&#45;abcac -->
<g id="edge76" class="edge">
<title>abcaa&#45;&#45;abcac</title>
<path fill="none" stroke="black" d="M998.32,-74.15C1015.46,-62.28 1039.38,-45.7 1056.51,-33.82"/>
</g>
<!-- abbcc&#45;&#45;abcbb -->
<g id="edge71" class="edge">
<title>abbcc&#45;&#45;abcbb</title>
<path fill="none" stroke="black" d="M1459.23,-30.25C1452.57,-32.36 1445.55,-34.41 1438.9,-36 1337.85,-60.22 1310.04,-52.93 1207.9,-72 1194.54,-74.49 1179.98,-77.57 1167.1,-80.42"/>
</g>
<!-- abbcc&#45;&#45;abccc -->
<g id="edge72" class="edge">
<title>abbcc&#45;&#45;abccc</title>
<path fill="none" stroke="black" d="M1458.21,-29.85C1451.82,-31.92 1445.15,-34.06 1438.9,-36 1388.34,-51.7 1329.44,-68.83 1293.16,-79.24"/>
</g>
<!-- abcbb&#45;&#45;abccb -->
<g id="edge85" class="edge">
<title>abcbb&#45;&#45;abccb</title>
<path fill="none" stroke="black" d="M1157.96,-76.16C1185.56,-63.53 1227.47,-44.36 1255.01,-31.76"/>
</g>
<!-- abcbb&#45;&#45;abcbc -->
<g id="edge86" class="edge">
<title>abcbb&#45;&#45;abcbc</title>
<path fill="none" stroke="black" d="M1166.75,-80.21C1207.93,-70.22 1276.5,-53.08 1334.9,-36 1341.28,-34.13 1348.06,-32.02 1354.54,-29.93"/>
</g>
<!-- abacc&#45;&#45;abcaa -->
<g id="edge53" class="edge">
<title>abacc&#45;&#45;abcaa</title>
<path fill="none" stroke="black" d="M1148.07,-29.98C1109.99,-43.11 1046.64,-64.95 1008.61,-78.06"/>
</g>
<!-- abacc&#45;&#45;abbcc -->
<g id="edge54" class="edge">
<title>abacc&#45;&#45;abbcc</title>
<path fill="none" stroke="black" d="M1200.26,-34.01C1211.32,-41.68 1225.61,-50.04 1239.9,-54 1321.28,-76.54 1348.43,-76.25 1429.9,-54 1444.49,-50.02 1459.14,-41.55 1470.42,-33.83"/>
</g>
<!-- abacc&#45;&#45;abccc -->
<g id="edge55" class="edge">
<title>abacc&#45;&#45;abccc</title>
<path fill="none" stroke="black" d="M1197.38,-34.49C1210.46,-46.08 1228.27,-61.86 1241.36,-73.46"/>
</g>
</g>
</svg>
