<?xml version="1.0" encoding="UTF-8" standalone="no"?>
<!DOCTYPE svg PUBLIC "-//W3C//DTD SVG 1.1//EN"
 "http://www.w3.org/Graphics/SVG/1.1/DTD/svg11.dtd">
<!-- Generated by graphviz version 6.0.2 (0)
 -->
<!-- Pages: 1 -->
<svg width="1033pt" height="116pt"
 viewBox="0.00 0.00 1033.44 116.00" xmlns="http://www.w3.org/2000/svg" xmlns:xlink="http://www.w3.org/1999/xlink">
<g id="graph0" class="graph" transform="scale(1 1) rotate(0) translate(4 112)">
<polygon fill="white" stroke="none" points="-4,4 -4,-112 1029.44,-112 1029.44,4 -4,4"/>
<!-- aaaab -->
<g id="node1" class="node">
<title>aaaab</title>
<ellipse fill="none" stroke="yellow" cx="251.9" cy="-90" rx="42.49" ry="18"/>
<text text-anchor="middle" x="251.9" y="-86.3" font-family="Times,serif" font-size="14.00"> aaaab 4 </text>
</g>
<!-- aaabb -->
<g id="node2" class="node">
<title>aaabb</title>
<ellipse fill="none" stroke="cyan" cx="42.9" cy="-18" rx="42.79" ry="18"/>
<text text-anchor="middle" x="42.9" y="-14.3" font-family="Times,serif" font-size="14.00"> aaabb 5 </text>
</g>
<!-- aaaab&#45;&#45;aaabb -->
<g id="edge1" class="edge">
<title>aaaab&#45;&#45;aaabb</title>
<path fill="none" stroke="black" d="M219.7,-78.22C180.54,-65.1 114.81,-43.09 75.48,-29.91"/>
</g>
<!-- abbba -->
<g id="node3" class="node">
<title>abbba</title>
<ellipse fill="none" stroke="cyan" cx="771.9" cy="-18" rx="43.59" ry="18"/>
<text text-anchor="middle" x="771.9" y="-14.3" font-family="Times,serif" font-size="14.00"> abbba 5 </text>
</g>
<!-- aaaab&#45;&#45;abbba -->
<g id="edge2" class="edge">
<title>aaaab&#45;&#45;abbba</title>
<path fill="none" stroke="black" d="M290.33,-82.12C309.92,-78.77 334.13,-74.85 355.9,-72 517.09,-50.88 560.81,-69.46 719.9,-36 726.59,-34.59 733.63,-32.63 740.29,-30.54"/>
</g>
<!-- abaab -->
<g id="node4" class="node">
<title>abaab</title>
<ellipse fill="none" stroke="cyan" cx="458.9" cy="-18" rx="42.79" ry="18"/>
<text text-anchor="middle" x="458.9" y="-14.3" font-family="Times,serif" font-size="14.00"> abaab 5 </text>
</g>
<!-- aaaab&#45;&#45;abaab -->
<g id="edge3" class="edge">
<title>aaaab&#45;&#45;abaab</title>
<path fill="none" stroke="black" d="M284.24,-78.06C323.01,-64.95 387.61,-43.11 426.44,-29.98"/>
</g>
<!-- aabab -->
<g id="node5" class="node">
<title>aabab</title>
<ellipse fill="none" stroke="cyan" cx="250.9" cy="-18" rx="42.79" ry="18"/>
<text text-anchor="middle" x="250.9" y="-14.3" font-family="Times,serif" font-size="14.00"> aabab 5 </text>
</g>
<!-- aaaab&#45;&#45;aabab -->
<g id="edge4" class="edge">
<title>aaaab&#45;&#45;aabab</title>
<path fill="none" stroke="black" d="M251.65,-71.7C251.49,-60.85 251.3,-46.92 251.14,-36.1"/>
</g>
<!-- abbaa -->
<g id="node10" class="node">
<title>abbaa</title>
<ellipse fill="none" stroke="cyan" cx="562.9" cy="-18" rx="42.79" ry="18"/>
<text text-anchor="middle" x="562.9" y="-14.3" font-family="Times,serif" font-size="14.00"> abbaa 5 </text>
</g>
<!-- aaabb&#45;&#45;abbaa -->
<g id="edge9" class="edge">
<title>aaabb&#45;&#45;abbaa</title>
<path fill="none" stroke="black" d="M63.37,-33.83C74.65,-41.55 89.31,-50.02 103.9,-54 189.22,-77.3 416.58,-77.3 501.9,-54 516.49,-50.02 531.14,-41.55 542.42,-33.83"/>
</g>
<!-- aabbb -->
<g id="node11" class="node">
<title>aabbb</title>
<ellipse fill="none" stroke="cyan" cx="981.9" cy="-18" rx="43.59" ry="18"/>
<text text-anchor="middle" x="981.9" y="-14.3" font-family="Times,serif" font-size="14.00"> aabbb 5 </text>
</g>
<!-- aaabb&#45;&#45;aabbb -->
<g id="edge10" class="edge">
<title>aaabb&#45;&#45;aabbb</title>
<path fill="none" stroke="black" d="M63.37,-33.83C74.65,-41.55 89.31,-50.02 103.9,-54 191.47,-77.91 833.32,-77.91 920.9,-54 935.37,-50.05 949.9,-41.69 961.15,-34.02"/>
</g>
<!-- ababb -->
<g id="node12" class="node">
<title>ababb</title>
<ellipse fill="none" stroke="cyan" cx="876.9" cy="-18" rx="43.59" ry="18"/>
<text text-anchor="middle" x="876.9" y="-14.3" font-family="Times,serif" font-size="14.00"> ababb 5 </text>
</g>
<!-- aaabb&#45;&#45;ababb -->
<g id="edge11" class="edge">
<title>aaabb&#45;&#45;ababb</title>
<path fill="none" stroke="black" d="M63.37,-33.83C74.65,-41.55 89.31,-50.02 103.9,-54 180.21,-74.84 739.58,-74.84 815.9,-54 830.37,-50.05 844.9,-41.69 856.15,-34.02"/>
</g>
<!-- abbbb -->
<g id="node15" class="node">
<title>abbbb</title>
<ellipse fill="none" stroke="yellow" cx="823.9" cy="-90" rx="44.39" ry="18"/>
<text text-anchor="middle" x="823.9" y="-86.3" font-family="Times,serif" font-size="14.00"> abbbb 4 </text>
</g>
<!-- abbba&#45;&#45;abbbb -->
<g id="edge35" class="edge">
<title>abbba&#45;&#45;abbbb</title>
<path fill="none" stroke="black" d="M784.13,-35.47C792.4,-46.6 803.28,-61.25 811.57,-72.41"/>
</g>
<!-- abbab -->
<g id="node9" class="node">
<title>abbab</title>
<ellipse fill="none" stroke="cyan" cx="666.9" cy="-18" rx="43.59" ry="18"/>
<text text-anchor="middle" x="666.9" y="-14.3" font-family="Times,serif" font-size="14.00"> abbab 5 </text>
</g>
<!-- abaab&#45;&#45;abbab -->
<g id="edge27" class="edge">
<title>abaab&#45;&#45;abbab</title>
<path fill="none" stroke="black" d="M479.37,-33.83C490.65,-41.55 505.31,-50.02 519.9,-54 556.77,-64.07 569.02,-64.07 605.9,-54 620.37,-50.05 634.9,-41.69 646.15,-34.02"/>
</g>
<!-- abaab&#45;&#45;ababb -->
<g id="edge28" class="edge">
<title>abaab&#45;&#45;ababb</title>
<path fill="none" stroke="black" d="M479.37,-33.83C490.65,-41.55 505.31,-50.02 519.9,-54 583.35,-71.33 752.44,-71.33 815.9,-54 830.37,-50.05 844.9,-41.69 856.15,-34.02"/>
</g>
<!-- ababa -->
<g id="node8" class="node">
<title>ababa</title>
<ellipse fill="none" stroke="cyan" cx="354.9" cy="-18" rx="42.79" ry="18"/>
<text text-anchor="middle" x="354.9" y="-14.3" font-family="Times,serif" font-size="14.00"> ababa 5 </text>
</g>
<!-- aabab&#45;&#45;ababa -->
<g id="edge18" class="edge">
<title>aabab&#45;&#45;ababa</title>
<path fill="none" stroke="black" d="M293.96,-18C299.83,-18 305.7,-18 311.57,-18"/>
</g>
<!-- aabab&#45;&#45;abbab -->
<g id="edge16" class="edge">
<title>aabab&#45;&#45;abbab</title>
<path fill="none" stroke="black" d="M271.37,-33.83C282.65,-41.55 297.31,-50.02 311.9,-54 374.92,-71.21 542.87,-71.21 605.9,-54 620.37,-50.05 634.9,-41.69 646.15,-34.02"/>
</g>
<!-- aabab&#45;&#45;aabbb -->
<g id="edge17" class="edge">
<title>aabab&#45;&#45;aabbb</title>
<path fill="none" stroke="black" d="M271.37,-33.83C282.65,-41.55 297.31,-50.02 311.9,-54 377.17,-71.83 855.62,-71.83 920.9,-54 935.37,-50.05 949.9,-41.69 961.15,-34.02"/>
</g>
<!-- aaaba -->
<g id="node6" class="node">
<title>aaaba</title>
<ellipse fill="none" stroke="yellow" cx="148.9" cy="-90" rx="42.49" ry="18"/>
<text text-anchor="middle" x="148.9" y="-86.3" font-family="Times,serif" font-size="14.00"> aaaba 4 </text>
</g>
<!-- aaaba&#45;&#45;aaabb -->
<g id="edge6" class="edge">
<title>aaaba&#45;&#45;aaabb</title>
<path fill="none" stroke="black" d="M126.93,-74.5C108.74,-62.48 83.02,-45.49 64.83,-33.49"/>
</g>
<!-- aabba -->
<g id="node7" class="node">
<title>aabba</title>
<ellipse fill="none" stroke="cyan" cx="146.9" cy="-18" rx="42.79" ry="18"/>
<text text-anchor="middle" x="146.9" y="-14.3" font-family="Times,serif" font-size="14.00"> aabba 5 </text>
</g>
<!-- aaaba&#45;&#45;aabba -->
<g id="edge5" class="edge">
<title>aaaba&#45;&#45;aabba</title>
<path fill="none" stroke="black" d="M148.4,-71.7C148.09,-60.85 147.69,-46.92 147.38,-36.1"/>
</g>
<!-- aaaba&#45;&#45;ababa -->
<g id="edge7" class="edge">
<title>aaaba&#45;&#45;ababa</title>
<path fill="none" stroke="black" d="M181.08,-78.06C219.67,-64.95 283.96,-43.11 322.6,-29.98"/>
</g>
<!-- aaaba&#45;&#45;abbab -->
<g id="edge8" class="edge">
<title>aaaba&#45;&#45;abbab</title>
<path fill="none" stroke="black" d="M179.65,-77.66C186.56,-75.47 193.92,-73.42 200.9,-72 381.86,-35.06 433.93,-72.94 614.9,-36 621.69,-34.61 628.84,-32.64 635.58,-30.52"/>
</g>
<!-- aabba&#45;&#45;abbba -->
<g id="edge21" class="edge">
<title>aabba&#45;&#45;abbba</title>
<path fill="none" stroke="black" d="M167.37,-33.83C178.65,-41.55 193.31,-50.02 207.9,-54 261.81,-68.72 656.98,-68.72 710.9,-54 725.37,-50.05 739.9,-41.69 751.15,-34.02"/>
</g>
<!-- aabba&#45;&#45;abaab -->
<g id="edge19" class="edge">
<title>aabba&#45;&#45;abaab</title>
<path fill="none" stroke="black" d="M167.37,-33.83C178.65,-41.55 193.31,-50.02 207.9,-54 289.36,-76.25 316.43,-76.25 397.9,-54 412.49,-50.02 427.14,-41.55 438.42,-33.83"/>
</g>
<!-- aabba&#45;&#45;aabbb -->
<g id="edge20" class="edge">
<title>aabba&#45;&#45;aabbb</title>
<path fill="none" stroke="black" d="M167.37,-33.83C178.65,-41.55 193.31,-50.02 207.9,-54 284.32,-74.87 844.47,-74.87 920.9,-54 935.37,-50.05 949.9,-41.69 961.15,-34.02"/>
</g>
<!-- ababa&#45;&#45;abbba -->
<g id="edge29" class="edge">
<title>ababa&#45;&#45;abbba</title>
<path fill="none" stroke="black" d="M375.37,-33.83C386.65,-41.55 401.31,-50.02 415.9,-54 479.14,-71.27 647.66,-71.27 710.9,-54 725.37,-50.05 739.9,-41.69 751.15,-34.02"/>
</g>
<!-- ababa&#45;&#45;ababb -->
<g id="edge30" class="edge">
<title>ababa&#45;&#45;ababb</title>
<path fill="none" stroke="black" d="M375.37,-33.83C386.65,-41.55 401.31,-50.02 415.9,-54 501.65,-77.42 730.15,-77.42 815.9,-54 830.37,-50.05 844.9,-41.69 856.15,-34.02"/>
</g>
<!-- abbab&#45;&#45;abbbb -->
<g id="edge34" class="edge">
<title>abbab&#45;&#45;abbbb</title>
<path fill="none" stroke="black" d="M695.51,-31.76C723.77,-44.36 766.77,-63.53 795.1,-76.16"/>
</g>
<!-- abbaa&#45;&#45;abbba -->
<g id="edge33" class="edge">
<title>abbaa&#45;&#45;abbba</title>
<path fill="none" stroke="black" d="M583.26,-34.01C594.32,-41.68 608.61,-50.04 622.9,-54 660.59,-64.44 673.17,-64.3 710.9,-54 725.37,-50.05 739.9,-41.69 751.15,-34.02"/>
</g>
<!-- abbaa&#45;&#45;abbab -->
<g id="edge32" class="edge">
<title>abbaa&#45;&#45;abbab</title>
<path fill="none" stroke="black" d="M605.96,-18C611.67,-18 617.38,-18 623.1,-18"/>
</g>
<!-- abaaa -->
<g id="node14" class="node">
<title>abaaa</title>
<ellipse fill="none" stroke="yellow" cx="510.9" cy="-90" rx="42.49" ry="18"/>
<text text-anchor="middle" x="510.9" y="-86.3" font-family="Times,serif" font-size="14.00"> abaaa 4 </text>
</g>
<!-- aabbb&#45;&#45;abaaa -->
<g id="edge22" class="edge">
<title>aabbb&#45;&#45;abaaa</title>
<path fill="none" stroke="black" d="M950.26,-30.4C943.6,-32.5 936.57,-34.5 929.9,-36 793.61,-66.6 628.14,-81.01 552.38,-86.38"/>
</g>
<!-- aabbb&#45;&#45;abbbb -->
<g id="edge23" class="edge">
<title>aabbb&#45;&#45;abbbb</title>
<path fill="none" stroke="black" d="M953.37,-31.64C924.93,-44.24 881.47,-63.49 852.88,-76.16"/>
</g>
<!-- ababb&#45;&#45;abbbb -->
<g id="edge31" class="edge">
<title>ababb&#45;&#45;abbbb</title>
<path fill="none" stroke="black" d="M864.43,-35.47C856,-46.6 844.91,-61.25 836.46,-72.41"/>
</g>
<!-- aabaa -->
<g id="node13" class="node">
<title>aabaa</title>
<ellipse fill="none" stroke="yellow" cx="406.9" cy="-90" rx="42.49" ry="18"/>
<text text-anchor="middle" x="406.9" y="-86.3" font-family="Times,serif" font-size="14.00"> aabaa 4 </text>
</g>
<!-- aabaa&#45;&#45;aabab -->
<g id="edge13" class="edge">
<title>aabaa&#45;&#45;aabab</title>
<path fill="none" stroke="black" d="M378.65,-76.32C350.46,-63.68 307.4,-44.36 279.2,-31.7"/>
</g>
<!-- aabaa&#45;&#45;aabba -->
<g id="edge12" class="edge">
<title>aabaa&#45;&#45;aabba</title>
<path fill="none" stroke="black" d="M370.63,-80.53C328.96,-70.63 258.66,-53.36 198.9,-36 192.51,-34.15 185.73,-32.03 179.25,-29.94"/>
</g>
<!-- aabaa&#45;&#45;abbaa -->
<g id="edge15" class="edge">
<title>aabaa&#45;&#45;abbaa</title>
<path fill="none" stroke="black" d="M435.15,-76.32C463.33,-63.68 506.39,-44.36 534.59,-31.7"/>
</g>
<!-- aabaa&#45;&#45;ababb -->
<g id="edge14" class="edge">
<title>aabaa&#45;&#45;ababb</title>
<path fill="none" stroke="black" d="M438.27,-77.73C445.31,-75.54 452.8,-73.47 459.9,-72 619.51,-38.92 665.37,-69.53 824.9,-36 831.59,-34.59 838.63,-32.63 845.29,-30.54"/>
</g>
<!-- abaaa&#45;&#45;abaab -->
<g id="edge26" class="edge">
<title>abaaa&#45;&#45;abaab</title>
<path fill="none" stroke="black" d="M498.57,-72.41C490.28,-61.25 479.4,-46.6 471.13,-35.47"/>
</g>
<!-- abaaa&#45;&#45;ababa -->
<g id="edge25" class="edge">
<title>abaaa&#45;&#45;ababa</title>
<path fill="none" stroke="black" d="M482.65,-76.32C454.46,-63.68 411.4,-44.36 383.2,-31.7"/>
</g>
<!-- abaaa&#45;&#45;abbaa -->
<g id="edge24" class="edge">
<title>abaaa&#45;&#45;abbaa</title>
<path fill="none" stroke="black" d="M523.22,-72.41C531.51,-61.25 542.39,-46.6 550.66,-35.47"/>
</g>
</g>
</svg>
