<?xml version="1.0" encoding="UTF-8" standalone="no"?>
<!DOCTYPE svg PUBLIC "-//W3C//DTD SVG 1.1//EN"
 "http://www.w3.org/Graphics/SVG/1.1/DTD/svg11.dtd">
<!-- Generated by graphviz version 6.0.2 (0)
 -->
<!-- Pages: 1 -->
<svg width="2806pt" height="116pt"
 viewBox="0.00 0.00 2805.89 116.00" xmlns="http://www.w3.org/2000/svg" xmlns:xlink="http://www.w3.org/1999/xlink">
<g id="graph0" class="graph" transform="scale(1 1) rotate(0) translate(4 112)">
<polygon fill="white" stroke="none" points="-4,4 -4,-112 2801.89,-112 2801.89,4 -4,4"/>
<!-- aaaaab -->
<g id="node1" class="node">
<title>aaaaab</title>
<ellipse fill="none" stroke="cyan" cx="382.8" cy="-90" rx="46.29" ry="18"/>
<text text-anchor="middle" x="382.8" y="-86.3" font-family="Times,serif" font-size="14.00"> aaaaab 5 </text>
</g>
<!-- abaaab -->
<g id="node2" class="node">
<title>abaaab</title>
<ellipse fill="none" stroke="black" cx="1054.8" cy="-18" rx="46.59" ry="18"/>
<text text-anchor="middle" x="1054.8" y="-14.3" font-family="Times,serif" font-size="14.00"> abaaab 6 </text>
</g>
<!-- aaaaab&#45;&#45;abaaab -->
<g id="edge1" class="edge">
<title>aaaaab&#45;&#45;abaaab</title>
<path fill="none" stroke="black" d="M426.9,-84.32C460.98,-80.76 509.36,-75.84 551.8,-72 750.29,-54.02 802.98,-73.16 998.8,-36 1006.08,-34.62 1013.77,-32.64 1021.03,-30.52"/>
</g>
<!-- aabaab -->
<g id="node3" class="node">
<title>aabaab</title>
<ellipse fill="none" stroke="black" cx="158.8" cy="-18" rx="46.59" ry="18"/>
<text text-anchor="middle" x="158.8" y="-14.3" font-family="Times,serif" font-size="14.00"> aabaab 6 </text>
</g>
<!-- aaaaab&#45;&#45;aabaab -->
<g id="edge2" class="edge">
<title>aaaaab&#45;&#45;aabaab</title>
<path fill="none" stroke="black" d="M347.8,-78.06C305.84,-64.95 235.93,-43.11 193.92,-29.98"/>
</g>
<!-- abbbba -->
<g id="node4" class="node">
<title>abbbba</title>
<ellipse fill="none" stroke="black" cx="2066.8" cy="-18" rx="48.19" ry="18"/>
<text text-anchor="middle" x="2066.8" y="-14.3" font-family="Times,serif" font-size="14.00"> abbbba 6 </text>
</g>
<!-- aaaaab&#45;&#45;abbbba -->
<g id="edge3" class="edge">
<title>aaaaab&#45;&#45;abbbba</title>
<path fill="none" stroke="black" d="M426.14,-83.73C460.24,-79.8 508.97,-74.68 551.8,-72 875.04,-51.78 1688.8,-85.97 2008.8,-36 2016.57,-34.79 2024.77,-32.82 2032.47,-30.66"/>
</g>
<!-- aaabab -->
<g id="node5" class="node">
<title>aaabab</title>
<ellipse fill="none" stroke="black" cx="382.8" cy="-18" rx="46.59" ry="18"/>
<text text-anchor="middle" x="382.8" y="-14.3" font-family="Times,serif" font-size="14.00"> aaabab 6 </text>
</g>
<!-- aaaaab&#45;&#45;aaabab -->
<g id="edge4" class="edge">
<title>aaaaab&#45;&#45;aaabab</title>
<path fill="none" stroke="black" d="M382.8,-71.7C382.8,-60.85 382.8,-46.92 382.8,-36.1"/>
</g>
<!-- aaaabb -->
<g id="node6" class="node">
<title>aaaabb</title>
<ellipse fill="none" stroke="black" cx="46.8" cy="-18" rx="46.59" ry="18"/>
<text text-anchor="middle" x="46.8" y="-14.3" font-family="Times,serif" font-size="14.00"> aaaabb 6 </text>
</g>
<!-- aaaaab&#45;&#45;aaaabb -->
<g id="edge5" class="edge">
<title>aaaaab&#45;&#45;aaaabb</title>
<path fill="none" stroke="black" d="M340.75,-82.49C285.7,-73.64 186.4,-56.54 102.8,-36 95.89,-34.3 88.57,-32.26 81.59,-30.19"/>
</g>
<!-- abaabb -->
<g id="node12" class="node">
<title>abaabb</title>
<ellipse fill="none" stroke="black" cx="2180.8" cy="-18" rx="47.39" ry="18"/>
<text text-anchor="middle" x="2180.8" y="-14.3" font-family="Times,serif" font-size="14.00"> abaabb 6 </text>
</g>
<!-- abaaab&#45;&#45;abaabb -->
<g id="edge64" class="edge">
<title>abaaab&#45;&#45;abaabb</title>
<path fill="none" stroke="black" d="M1077.05,-34.03C1089.08,-41.7 1104.56,-50.06 1119.8,-54 1173.32,-67.83 2061.23,-67.66 2114.8,-54 2130.23,-50.07 2145.94,-41.71 2158.16,-34.03"/>
</g>
<!-- ababab -->
<g id="node21" class="node">
<title>ababab</title>
<ellipse fill="none" stroke="black" cx="2293.8" cy="-18" rx="47.39" ry="18"/>
<text text-anchor="middle" x="2293.8" y="-14.3" font-family="Times,serif" font-size="14.00"> ababab 6 </text>
</g>
<!-- abaaab&#45;&#45;ababab -->
<g id="edge65" class="edge">
<title>abaaab&#45;&#45;ababab</title>
<path fill="none" stroke="black" d="M1077.05,-34.03C1089.08,-41.7 1104.56,-50.06 1119.8,-54 1179.39,-69.4 2168.15,-69.21 2227.8,-54 2243.23,-50.07 2258.94,-41.71 2271.16,-34.03"/>
</g>
<!-- abbaab -->
<g id="node23" class="node">
<title>abbaab</title>
<ellipse fill="none" stroke="black" cx="1615.8" cy="-18" rx="47.39" ry="18"/>
<text text-anchor="middle" x="1615.8" y="-14.3" font-family="Times,serif" font-size="14.00"> abbaab 6 </text>
</g>
<!-- abaaab&#45;&#45;abbaab -->
<g id="edge63" class="edge">
<title>abaaab&#45;&#45;abbaab</title>
<path fill="none" stroke="black" d="M1077.05,-34.03C1089.08,-41.7 1104.56,-50.06 1119.8,-54 1212.31,-77.91 1457.2,-77.61 1549.8,-54 1565.23,-50.07 1580.94,-41.71 1593.16,-34.03"/>
</g>
<!-- aababb -->
<g id="node15" class="node">
<title>aababb</title>
<ellipse fill="none" stroke="black" cx="494.8" cy="-18" rx="47.39" ry="18"/>
<text text-anchor="middle" x="494.8" y="-14.3" font-family="Times,serif" font-size="14.00"> aababb 6 </text>
</g>
<!-- aabaab&#45;&#45;aababb -->
<g id="edge39" class="edge">
<title>aabaab&#45;&#45;aababb</title>
<path fill="none" stroke="black" d="M181.05,-34.03C193.08,-41.7 208.56,-50.06 223.8,-54 312.44,-76.91 341.15,-76.91 429.8,-54 445.03,-50.06 460.51,-41.7 472.54,-34.03"/>
</g>
<!-- aabbab -->
<g id="node22" class="node">
<title>aabbab</title>
<ellipse fill="none" stroke="black" cx="1166.8" cy="-18" rx="47.39" ry="18"/>
<text text-anchor="middle" x="1166.8" y="-14.3" font-family="Times,serif" font-size="14.00"> aabbab 6 </text>
</g>
<!-- aabaab&#45;&#45;aabbab -->
<g id="edge38" class="edge">
<title>aabaab&#45;&#45;aabbab</title>
<path fill="none" stroke="black" d="M181.05,-34.03C193.08,-41.7 208.56,-50.06 223.8,-54 271.02,-66.2 1054.57,-66.2 1101.8,-54 1117.03,-50.06 1132.51,-41.7 1144.54,-34.03"/>
</g>
<!-- aabaab&#45;&#45;abbaab -->
<g id="edge36" class="edge">
<title>aabaab&#45;&#45;abbaab</title>
<path fill="none" stroke="black" d="M181.05,-34.03C193.08,-41.7 208.56,-50.06 223.8,-54 295.12,-72.43 1478.41,-72.2 1549.8,-54 1565.23,-50.07 1580.94,-41.71 1593.16,-34.03"/>
</g>
<!-- ababba -->
<g id="node25" class="node">
<title>ababba</title>
<ellipse fill="none" stroke="black" cx="1839.8" cy="-18" rx="47.39" ry="18"/>
<text text-anchor="middle" x="1839.8" y="-14.3" font-family="Times,serif" font-size="14.00"> ababba 6 </text>
</g>
<!-- aabaab&#45;&#45;ababba -->
<g id="edge37" class="edge">
<title>aabaab&#45;&#45;ababba</title>
<path fill="none" stroke="black" d="M181.05,-34.03C193.08,-41.7 208.56,-50.06 223.8,-54 307.22,-75.56 1691.37,-75.56 1774.8,-54 1790.03,-50.06 1805.51,-41.7 1817.54,-34.03"/>
</g>
<!-- abbbbb -->
<g id="node31" class="node">
<title>abbbbb</title>
<ellipse fill="none" stroke="cyan" cx="2521.8" cy="-90" rx="48.19" ry="18"/>
<text text-anchor="middle" x="2521.8" y="-86.3" font-family="Times,serif" font-size="14.00"> abbbbb 5 </text>
</g>
<!-- abbbba&#45;&#45;abbbbb -->
<g id="edge90" class="edge">
<title>abbbba&#45;&#45;abbbbb</title>
<path fill="none" stroke="black" d="M2102.16,-30.29C2109.58,-32.4 2117.41,-34.43 2124.8,-36 2250.13,-62.57 2400.7,-78.35 2475.26,-85.11"/>
</g>
<!-- aaabbb -->
<g id="node14" class="node">
<title>aaabbb</title>
<ellipse fill="none" stroke="black" cx="718.8" cy="-18" rx="47.39" ry="18"/>
<text text-anchor="middle" x="718.8" y="-14.3" font-family="Times,serif" font-size="14.00"> aaabbb 6 </text>
</g>
<!-- aaabab&#45;&#45;aaabbb -->
<g id="edge23" class="edge">
<title>aaabab&#45;&#45;aaabbb</title>
<path fill="none" stroke="black" d="M405.05,-34.03C417.08,-41.7 432.56,-50.06 447.8,-54 536.44,-76.91 565.15,-76.91 653.8,-54 669.03,-50.06 684.51,-41.7 696.54,-34.03"/>
</g>
<!-- abbaba -->
<g id="node20" class="node">
<title>abbaba</title>
<ellipse fill="none" stroke="black" cx="1502.8" cy="-18" rx="47.39" ry="18"/>
<text text-anchor="middle" x="1502.8" y="-14.3" font-family="Times,serif" font-size="14.00"> abbaba 6 </text>
</g>
<!-- aaabab&#45;&#45;abbaba -->
<g id="edge20" class="edge">
<title>aaabab&#45;&#45;abbaba</title>
<path fill="none" stroke="black" d="M405.05,-34.03C417.08,-41.7 432.56,-50.06 447.8,-54 501.05,-67.76 1384.55,-67.76 1437.8,-54 1453.03,-50.06 1468.51,-41.7 1480.54,-34.03"/>
</g>
<!-- aaabab&#45;&#45;ababab -->
<g id="edge21" class="edge">
<title>aaabab&#45;&#45;ababab</title>
<path fill="none" stroke="black" d="M405.05,-34.03C417.08,-41.7 432.56,-50.06 447.8,-54 495.67,-66.37 2179.88,-66.22 2227.8,-54 2243.23,-50.07 2258.94,-41.71 2271.16,-34.03"/>
</g>
<!-- aaabab&#45;&#45;aabbab -->
<g id="edge22" class="edge">
<title>aaabab&#45;&#45;aabbab</title>
<path fill="none" stroke="black" d="M405.05,-34.03C417.08,-41.7 432.56,-50.06 447.8,-54 518.15,-72.18 1031.44,-72.18 1101.8,-54 1117.03,-50.06 1132.51,-41.7 1144.54,-34.03"/>
</g>
<!-- aaaabb&#45;&#45;abaabb -->
<g id="edge11" class="edge">
<title>aaaabb&#45;&#45;abaabb</title>
<path fill="none" stroke="black" d="M69.05,-34.03C81.08,-41.7 96.56,-50.06 111.8,-54 165.66,-67.92 2060.88,-67.75 2114.8,-54 2130.23,-50.07 2145.94,-41.71 2158.16,-34.03"/>
</g>
<!-- abbbaa -->
<g id="node13" class="node">
<title>abbbaa</title>
<ellipse fill="none" stroke="black" cx="1952.8" cy="-18" rx="47.39" ry="18"/>
<text text-anchor="middle" x="1952.8" y="-14.3" font-family="Times,serif" font-size="14.00"> abbbaa 6 </text>
</g>
<!-- aaaabb&#45;&#45;abbbaa -->
<g id="edge12" class="edge">
<title>aaaabb&#45;&#45;abbbaa</title>
<path fill="none" stroke="black" d="M69.05,-34.03C81.08,-41.7 96.56,-50.06 111.8,-54 159.53,-66.34 1839.02,-66.18 1886.8,-54 1902.23,-50.07 1917.94,-41.71 1930.16,-34.03"/>
</g>
<!-- aaaabb&#45;&#45;aaabbb -->
<g id="edge13" class="edge">
<title>aaaabb&#45;&#45;aaabbb</title>
<path fill="none" stroke="black" d="M69.05,-34.03C81.08,-41.7 96.56,-50.06 111.8,-54 170.1,-69.07 595.49,-69.07 653.8,-54 669.03,-50.06 684.51,-41.7 696.54,-34.03"/>
</g>
<!-- aaaabb&#45;&#45;aababb -->
<g id="edge14" class="edge">
<title>aaaabb&#45;&#45;aababb</title>
<path fill="none" stroke="black" d="M69.05,-34.03C81.08,-41.7 96.56,-50.06 111.8,-54 180.21,-71.68 361.38,-71.68 429.8,-54 445.03,-50.06 460.51,-41.7 472.54,-34.03"/>
</g>
<!-- aaaaba -->
<g id="node7" class="node">
<title>aaaaba</title>
<ellipse fill="none" stroke="cyan" cx="606.8" cy="-90" rx="46.29" ry="18"/>
<text text-anchor="middle" x="606.8" y="-86.3" font-family="Times,serif" font-size="14.00"> aaaaba 5 </text>
</g>
<!-- aaaaba&#45;&#45;aaaabb -->
<g id="edge10" class="edge">
<title>aaaaba&#45;&#45;aaaabb</title>
<path fill="none" stroke="black" d="M562.65,-84.59C443.92,-72.69 125.22,-40.54 102.8,-36 95.63,-34.55 88.06,-32.57 80.89,-30.47"/>
</g>
<!-- aababa -->
<g id="node8" class="node">
<title>aababa</title>
<ellipse fill="none" stroke="black" cx="270.8" cy="-18" rx="46.59" ry="18"/>
<text text-anchor="middle" x="270.8" y="-14.3" font-family="Times,serif" font-size="14.00"> aababa 6 </text>
</g>
<!-- aaaaba&#45;&#45;aababa -->
<g id="edge6" class="edge">
<title>aaaaba&#45;&#45;aababa</title>
<path fill="none" stroke="black" d="M564.75,-82.49C509.7,-73.64 410.4,-56.54 326.8,-36 319.89,-34.3 312.57,-32.26 305.59,-30.19"/>
</g>
<!-- abbbab -->
<g id="node9" class="node">
<title>abbbab</title>
<ellipse fill="none" stroke="black" cx="2407.8" cy="-18" rx="48.19" ry="18"/>
<text text-anchor="middle" x="2407.8" y="-14.3" font-family="Times,serif" font-size="14.00"> abbbab 6 </text>
</g>
<!-- aaaaba&#45;&#45;abbbab -->
<g id="edge7" class="edge">
<title>aaaaba&#45;&#45;abbbab</title>
<path fill="none" stroke="black" d="M647.81,-81.61C669.44,-78.03 696.47,-74.07 720.8,-72 1081.58,-41.24 1991.97,-91.4 2349.8,-36 2357.57,-34.8 2365.77,-32.84 2373.48,-30.67"/>
</g>
<!-- aaabba -->
<g id="node10" class="node">
<title>aaabba</title>
<ellipse fill="none" stroke="black" cx="606.8" cy="-18" rx="46.59" ry="18"/>
<text text-anchor="middle" x="606.8" y="-14.3" font-family="Times,serif" font-size="14.00"> aaabba 6 </text>
</g>
<!-- aaaaba&#45;&#45;aaabba -->
<g id="edge8" class="edge">
<title>aaaaba&#45;&#45;aaabba</title>
<path fill="none" stroke="black" d="M606.8,-71.7C606.8,-60.85 606.8,-46.92 606.8,-36.1"/>
</g>
<!-- abaaba -->
<g id="node11" class="node">
<title>abaaba</title>
<ellipse fill="none" stroke="black" cx="1278.8" cy="-18" rx="46.59" ry="18"/>
<text text-anchor="middle" x="1278.8" y="-14.3" font-family="Times,serif" font-size="14.00"> abaaba 6 </text>
</g>
<!-- aaaaba&#45;&#45;abaaba -->
<g id="edge9" class="edge">
<title>aaaaba&#45;&#45;abaaba</title>
<path fill="none" stroke="black" d="M648.39,-82.02C669.94,-78.6 696.73,-74.65 720.8,-72 943.13,-47.49 1002.85,-76.74 1222.8,-36 1230.09,-34.65 1237.78,-32.69 1245.04,-30.57"/>
</g>
<!-- aababa&#45;&#45;aababb -->
<g id="edge43" class="edge">
<title>aababa&#45;&#45;aababb</title>
<path fill="none" stroke="black" d="M293.05,-34.03C305.08,-41.7 320.56,-50.06 335.8,-54 376.24,-64.45 389.35,-64.45 429.8,-54 445.03,-50.06 460.51,-41.7 472.54,-34.03"/>
</g>
<!-- aababa&#45;&#45;abbaba -->
<g id="edge40" class="edge">
<title>aababa&#45;&#45;abbaba</title>
<path fill="none" stroke="black" d="M293.05,-34.03C305.08,-41.7 320.56,-50.06 335.8,-54 395.07,-69.32 1378.52,-69.32 1437.8,-54 1453.03,-50.06 1468.51,-41.7 1480.54,-34.03"/>
</g>
<!-- aababa&#45;&#45;ababab -->
<g id="edge42" class="edge">
<title>aababa&#45;&#45;ababab</title>
<path fill="none" stroke="black" d="M293.05,-34.03C305.08,-41.7 320.56,-50.06 335.8,-54 386.68,-67.15 2176.87,-66.99 2227.8,-54 2243.23,-50.07 2258.94,-41.71 2271.16,-34.03"/>
</g>
<!-- aabbba -->
<g id="node24" class="node">
<title>aabbba</title>
<ellipse fill="none" stroke="black" cx="942.8" cy="-18" rx="47.39" ry="18"/>
<text text-anchor="middle" x="942.8" y="-14.3" font-family="Times,serif" font-size="14.00"> aabbba 6 </text>
</g>
<!-- aababa&#45;&#45;aabbba -->
<g id="edge41" class="edge">
<title>aababa&#45;&#45;aabbba</title>
<path fill="none" stroke="black" d="M293.05,-34.03C305.08,-41.7 320.56,-50.06 335.8,-54 394.1,-69.07 819.49,-69.07 877.8,-54 893.03,-50.06 908.51,-41.7 920.54,-34.03"/>
</g>
<!-- abbbab&#45;&#45;abbbbb -->
<g id="edge89" class="edge">
<title>abbbab&#45;&#45;abbbbb</title>
<path fill="none" stroke="black" d="M2431.66,-33.65C2451.11,-45.6 2478.44,-62.38 2497.9,-74.33"/>
</g>
<!-- aaabba&#45;&#45;aaabbb -->
<g id="edge27" class="edge">
<title>aaabba&#45;&#45;aaabbb</title>
<path fill="none" stroke="black" d="M653.61,-18C659.47,-18 665.32,-18 671.18,-18"/>
</g>
<!-- aaabba&#45;&#45;abbaab -->
<g id="edge24" class="edge">
<title>aaabba&#45;&#45;abbaab</title>
<path fill="none" stroke="black" d="M629.05,-34.03C641.08,-41.7 656.56,-50.06 671.8,-54 719.02,-66.2 1502.53,-66.05 1549.8,-54 1565.23,-50.07 1580.94,-41.71 1593.16,-34.03"/>
</g>
<!-- aaabba&#45;&#45;aabbba -->
<g id="edge25" class="edge">
<title>aaabba&#45;&#45;aabbba</title>
<path fill="none" stroke="black" d="M629.05,-34.03C641.08,-41.7 656.56,-50.06 671.8,-54 760.44,-76.91 789.15,-76.91 877.8,-54 893.03,-50.06 908.51,-41.7 920.54,-34.03"/>
</g>
<!-- aaabba&#45;&#45;ababba -->
<g id="edge26" class="edge">
<title>aaabba&#45;&#45;ababba</title>
<path fill="none" stroke="black" d="M629.05,-34.03C641.08,-41.7 656.56,-50.06 671.8,-54 731.12,-69.33 1715.47,-69.33 1774.8,-54 1790.03,-50.06 1805.51,-41.7 1817.54,-34.03"/>
</g>
<!-- abaaba&#45;&#45;abaabb -->
<g id="edge67" class="edge">
<title>abaaba&#45;&#45;abaabb</title>
<path fill="none" stroke="black" d="M1301.05,-34.03C1313.08,-41.7 1328.56,-50.06 1343.8,-54 1426.74,-75.43 2031.79,-75.17 2114.8,-54 2130.23,-50.07 2145.94,-41.71 2158.16,-34.03"/>
</g>
<!-- abaaba&#45;&#45;abbaba -->
<g id="edge66" class="edge">
<title>abaaba&#45;&#45;abbaba</title>
<path fill="none" stroke="black" d="M1301.05,-34.03C1313.08,-41.7 1328.56,-50.06 1343.8,-54 1384.24,-64.45 1397.35,-64.45 1437.8,-54 1453.03,-50.06 1468.51,-41.7 1480.54,-34.03"/>
</g>
<!-- abaaba&#45;&#45;ababba -->
<g id="edge68" class="edge">
<title>abaaba&#45;&#45;ababba</title>
<path fill="none" stroke="black" d="M1301.05,-34.03C1313.08,-41.7 1328.56,-50.06 1343.8,-54 1436.53,-77.96 1682.06,-77.96 1774.8,-54 1790.03,-50.06 1805.51,-41.7 1817.54,-34.03"/>
</g>
<!-- abbabb -->
<g id="node18" class="node">
<title>abbabb</title>
<ellipse fill="none" stroke="black" cx="2635.8" cy="-18" rx="48.19" ry="18"/>
<text text-anchor="middle" x="2635.8" y="-14.3" font-family="Times,serif" font-size="14.00"> abbabb 6 </text>
</g>
<!-- abaabb&#45;&#45;abbabb -->
<g id="edge69" class="edge">
<title>abaabb&#45;&#45;abbabb</title>
<path fill="none" stroke="black" d="M2203.43,-34.03C2215.65,-41.71 2231.37,-50.07 2246.8,-54 2316.35,-71.74 2500.24,-71.74 2569.8,-54 2585.23,-50.07 2600.94,-41.71 2613.16,-34.03"/>
</g>
<!-- ababbb -->
<g id="node28" class="node">
<title>ababbb</title>
<ellipse fill="none" stroke="black" cx="2521.8" cy="-18" rx="48.19" ry="18"/>
<text text-anchor="middle" x="2521.8" y="-14.3" font-family="Times,serif" font-size="14.00"> ababbb 6 </text>
</g>
<!-- abaabb&#45;&#45;ababbb -->
<g id="edge70" class="edge">
<title>abaabb&#45;&#45;ababbb</title>
<path fill="none" stroke="black" d="M2203.43,-34.03C2215.65,-41.71 2231.37,-50.07 2246.8,-54 2336.8,-76.95 2365.79,-76.95 2455.8,-54 2471.23,-50.07 2486.94,-41.71 2499.16,-34.03"/>
</g>
<!-- abbbaa&#45;&#45;abbbba -->
<g id="edge88" class="edge">
<title>abbbaa&#45;&#45;abbbba</title>
<path fill="none" stroke="black" d="M2000.44,-18C2006.49,-18 2012.54,-18 2018.59,-18"/>
</g>
<!-- abbbaa&#45;&#45;abbbab -->
<g id="edge87" class="edge">
<title>abbbaa&#45;&#45;abbbab</title>
<path fill="none" stroke="black" d="M1975.43,-34.03C1987.65,-41.71 2003.37,-50.07 2018.8,-54 2088.13,-71.68 2271.4,-71.46 2340.8,-54 2356.42,-50.07 2372.37,-41.71 2384.78,-34.03"/>
</g>
<!-- aabbbb -->
<g id="node26" class="node">
<title>aabbbb</title>
<ellipse fill="none" stroke="black" cx="2749.8" cy="-18" rx="48.19" ry="18"/>
<text text-anchor="middle" x="2749.8" y="-14.3" font-family="Times,serif" font-size="14.00"> aabbbb 6 </text>
</g>
<!-- aaabbb&#45;&#45;aabbbb -->
<g id="edge28" class="edge">
<title>aaabbb&#45;&#45;aabbbb</title>
<path fill="none" stroke="black" d="M741.05,-34.03C753.08,-41.7 768.56,-50.06 783.8,-54 834.89,-67.21 2632.65,-67.04 2683.8,-54 2699.23,-50.07 2714.94,-41.71 2727.16,-34.03"/>
</g>
<!-- abbaaa -->
<g id="node27" class="node">
<title>abbaaa</title>
<ellipse fill="none" stroke="black" cx="1390.8" cy="-18" rx="46.59" ry="18"/>
<text text-anchor="middle" x="1390.8" y="-14.3" font-family="Times,serif" font-size="14.00"> abbaaa 6 </text>
</g>
<!-- aaabbb&#45;&#45;abbaaa -->
<g id="edge29" class="edge">
<title>aaabbb&#45;&#45;abbaaa</title>
<path fill="none" stroke="black" d="M741.05,-34.03C753.08,-41.7 768.56,-50.06 783.8,-54 842.1,-69.07 1267.49,-69.07 1325.8,-54 1341.03,-50.06 1356.51,-41.7 1368.54,-34.03"/>
</g>
<!-- aaabbb&#45;&#45;ababbb -->
<g id="edge30" class="edge">
<title>aaabbb&#45;&#45;ababbb</title>
<path fill="none" stroke="black" d="M741.05,-34.03C753.08,-41.7 768.56,-50.06 783.8,-54 873.73,-77.24 2365.79,-76.95 2455.8,-54 2471.23,-50.07 2486.94,-41.71 2499.16,-34.03"/>
</g>
<!-- ababaa -->
<g id="node17" class="node">
<title>ababaa</title>
<ellipse fill="none" stroke="black" cx="1727.8" cy="-18" rx="46.59" ry="18"/>
<text text-anchor="middle" x="1727.8" y="-14.3" font-family="Times,serif" font-size="14.00"> ababaa 6 </text>
</g>
<!-- aababb&#45;&#45;ababaa -->
<g id="edge44" class="edge">
<title>aababb&#45;&#45;ababaa</title>
<path fill="none" stroke="black" d="M517.05,-34.03C529.08,-41.7 544.56,-50.06 559.8,-54 619.12,-69.33 1603.47,-69.33 1662.8,-54 1678.03,-50.06 1693.51,-41.7 1705.54,-34.03"/>
</g>
<!-- aababb&#45;&#45;abbabb -->
<g id="edge45" class="edge">
<title>aababb&#45;&#45;abbabb</title>
<path fill="none" stroke="black" d="M517.05,-34.03C529.08,-41.7 544.56,-50.06 559.8,-54 613.85,-67.97 2515.69,-67.8 2569.8,-54 2585.23,-50.07 2600.94,-41.71 2613.16,-34.03"/>
</g>
<!-- aababb&#45;&#45;aabbbb -->
<g id="edge46" class="edge">
<title>aababb&#45;&#45;aabbbb</title>
<path fill="none" stroke="black" d="M517.05,-34.03C529.08,-41.7 544.56,-50.06 559.8,-54 616.92,-68.76 2626.63,-68.58 2683.8,-54 2699.23,-50.07 2714.94,-41.71 2727.16,-34.03"/>
</g>
<!-- aaabaa -->
<g id="node16" class="node">
<title>aaabaa</title>
<ellipse fill="none" stroke="cyan" cx="885.8" cy="-90" rx="46.29" ry="18"/>
<text text-anchor="middle" x="885.8" y="-86.3" font-family="Times,serif" font-size="14.00"> aaabaa 5 </text>
</g>
<!-- aaabaa&#45;&#45;aaabab -->
<g id="edge18" class="edge">
<title>aaabaa&#45;&#45;aaabab</title>
<path fill="none" stroke="black" d="M852.34,-77.45C845.29,-75.36 837.85,-73.4 830.8,-72 659.18,-37.98 610.5,-69.58 438.8,-36 431.52,-34.58 423.84,-32.58 416.57,-30.46"/>
</g>
<!-- aaabaa&#45;&#45;aaabba -->
<g id="edge19" class="edge">
<title>aaabaa&#45;&#45;aaabba</title>
<path fill="none" stroke="black" d="M851.31,-77.83C844.54,-75.78 837.47,-73.74 830.8,-72 756.91,-52.71 736.73,-55.11 662.8,-36 655.91,-34.22 648.6,-32.14 641.62,-30.06"/>
</g>
<!-- aaabaa&#45;&#45;ababaa -->
<g id="edge15" class="edge">
<title>aaabaa&#45;&#45;ababaa</title>
<path fill="none" stroke="black" d="M931.46,-87.29C1076.9,-81.61 1528.1,-62.3 1671.8,-36 1679.09,-34.66 1686.78,-32.71 1694.04,-30.59"/>
</g>
<!-- aaabaa&#45;&#45;abbabb -->
<g id="edge16" class="edge">
<title>aaabaa&#45;&#45;abbabb</title>
<path fill="none" stroke="black" d="M931.46,-87.14C1012.76,-83.86 1187.92,-76.93 1335.8,-72 1611.98,-62.78 2305.96,-79.86 2578.8,-36 2586.24,-34.8 2594.07,-32.91 2601.47,-30.81"/>
</g>
<!-- aabbaa -->
<g id="node19" class="node">
<title>aabbaa</title>
<ellipse fill="none" stroke="black" cx="830.8" cy="-18" rx="46.59" ry="18"/>
<text text-anchor="middle" x="830.8" y="-14.3" font-family="Times,serif" font-size="14.00"> aabbaa 6 </text>
</g>
<!-- aaabaa&#45;&#45;aabbaa -->
<g id="edge17" class="edge">
<title>aaabaa&#45;&#45;aabbaa</title>
<path fill="none" stroke="black" d="M872.76,-72.41C863.99,-61.25 852.48,-46.6 843.74,-35.47"/>
</g>
<!-- ababaa&#45;&#45;abbbaa -->
<g id="edge71" class="edge">
<title>ababaa&#45;&#45;abbbaa</title>
<path fill="none" stroke="black" d="M1750.05,-34.03C1762.08,-41.7 1777.56,-50.06 1792.8,-54 1833.24,-64.45 1846.31,-64.32 1886.8,-54 1902.23,-50.07 1917.94,-41.71 1930.16,-34.03"/>
</g>
<!-- ababaa&#45;&#45;ababab -->
<g id="edge72" class="edge">
<title>ababaa&#45;&#45;ababab</title>
<path fill="none" stroke="black" d="M1750.05,-34.03C1762.08,-41.7 1777.56,-50.06 1792.8,-54 1839.59,-66.09 2180.96,-65.94 2227.8,-54 2243.23,-50.07 2258.94,-41.71 2271.16,-34.03"/>
</g>
<!-- ababaa&#45;&#45;ababba -->
<g id="edge73" class="edge">
<title>ababaa&#45;&#45;ababba</title>
<path fill="none" stroke="black" d="M1774.61,-18C1780.47,-18 1786.32,-18 1792.18,-18"/>
</g>
<!-- abbabb&#45;&#45;abbbbb -->
<g id="edge86" class="edge">
<title>abbabb&#45;&#45;abbbbb</title>
<path fill="none" stroke="black" d="M2611.93,-33.65C2592.48,-45.6 2565.15,-62.38 2545.69,-74.33"/>
</g>
<!-- aabbaa&#45;&#45;abaabb -->
<g id="edge48" class="edge">
<title>aabbaa&#45;&#45;abaabb</title>
<path fill="none" stroke="black" d="M853.05,-34.03C865.08,-41.7 880.56,-50.06 895.8,-54 961.36,-70.94 2049.17,-70.73 2114.8,-54 2130.23,-50.07 2145.94,-41.71 2158.16,-34.03"/>
</g>
<!-- aabbaa&#45;&#45;abbbaa -->
<g id="edge49" class="edge">
<title>aabbaa&#45;&#45;abbbaa</title>
<path fill="none" stroke="black" d="M853.05,-34.03C865.08,-41.7 880.56,-50.06 895.8,-54 949.1,-67.78 1833.45,-67.6 1886.8,-54 1902.23,-50.07 1917.94,-41.71 1930.16,-34.03"/>
</g>
<!-- aabbaa&#45;&#45;aabbab -->
<g id="edge50" class="edge">
<title>aabbaa&#45;&#45;aabbab</title>
<path fill="none" stroke="black" d="M853.05,-34.03C865.08,-41.7 880.56,-50.06 895.8,-54 984.44,-76.91 1013.15,-76.91 1101.8,-54 1117.03,-50.06 1132.51,-41.7 1144.54,-34.03"/>
</g>
<!-- aabbaa&#45;&#45;aabbba -->
<g id="edge47" class="edge">
<title>aabbaa&#45;&#45;aabbba</title>
<path fill="none" stroke="black" d="M877.61,-18C883.47,-18 889.32,-18 895.18,-18"/>
</g>
<!-- abbaba&#45;&#45;abbbba -->
<g id="edge85" class="edge">
<title>abbaba&#45;&#45;abbbba</title>
<path fill="none" stroke="black" d="M1525.43,-34.03C1537.65,-41.71 1553.37,-50.07 1568.8,-54 1661.6,-77.67 1906.91,-77.37 1999.8,-54 2015.42,-50.07 2031.37,-41.71 2043.78,-34.03"/>
</g>
<!-- abbaba&#45;&#45;abbabb -->
<g id="edge84" class="edge">
<title>abbaba&#45;&#45;abbabb</title>
<path fill="none" stroke="black" d="M1525.43,-34.03C1537.65,-41.71 1553.37,-50.07 1568.8,-54 1622.68,-67.74 2515.91,-67.74 2569.8,-54 2585.23,-50.07 2600.94,-41.71 2613.16,-34.03"/>
</g>
<!-- ababab&#45;&#45;abbbab -->
<g id="edge74" class="edge">
<title>ababab&#45;&#45;abbbab</title>
<path fill="none" stroke="black" d="M2341.44,-18C2347.49,-18 2353.54,-18 2359.59,-18"/>
</g>
<!-- ababab&#45;&#45;ababbb -->
<g id="edge75" class="edge">
<title>ababab&#45;&#45;ababbb</title>
<path fill="none" stroke="black" d="M2316.43,-34.03C2328.65,-41.71 2344.37,-50.07 2359.8,-54 2401.14,-64.54 2414.45,-64.54 2455.8,-54 2471.23,-50.07 2486.94,-41.71 2499.16,-34.03"/>
</g>
<!-- aabbab&#45;&#45;abbbab -->
<g id="edge52" class="edge">
<title>aabbab&#45;&#45;abbbab</title>
<path fill="none" stroke="black" d="M1189.05,-34.03C1201.08,-41.7 1216.56,-50.06 1231.8,-54 1291.45,-69.42 2281.05,-69.04 2340.8,-54 2356.42,-50.07 2372.37,-41.71 2384.78,-34.03"/>
</g>
<!-- aabbab&#45;&#45;abaaba -->
<g id="edge53" class="edge">
<title>aabbab&#45;&#45;abaaba</title>
<path fill="none" stroke="black" d="M1214.48,-18C1220.26,-18 1226.04,-18 1231.82,-18"/>
</g>
<!-- aabbab&#45;&#45;aabbbb -->
<g id="edge51" class="edge">
<title>aabbab&#45;&#45;aabbbb</title>
<path fill="none" stroke="black" d="M1189.05,-34.03C1201.08,-41.7 1216.56,-50.06 1231.8,-54 1309.9,-74.18 2605.63,-73.93 2683.8,-54 2699.23,-50.07 2714.94,-41.71 2727.16,-34.03"/>
</g>
<!-- abbaab&#45;&#45;abbbab -->
<g id="edge83" class="edge">
<title>abbaab&#45;&#45;abbbab</title>
<path fill="none" stroke="black" d="M1638.05,-34.03C1650.08,-41.7 1665.56,-50.06 1680.8,-54 1751.8,-72.35 2269.68,-71.9 2340.8,-54 2356.42,-50.07 2372.37,-41.71 2384.78,-34.03"/>
</g>
<!-- abbaab&#45;&#45;abbabb -->
<g id="edge82" class="edge">
<title>abbaab&#45;&#45;abbabb</title>
<path fill="none" stroke="black" d="M1638.05,-34.03C1650.08,-41.7 1665.56,-50.06 1680.8,-54 1728.61,-66.36 2521.94,-66.2 2569.8,-54 2585.23,-50.07 2600.94,-41.71 2613.16,-34.03"/>
</g>
<!-- aabbba&#45;&#45;abaaab -->
<g id="edge54" class="edge">
<title>aabbba&#45;&#45;abaaab</title>
<path fill="none" stroke="black" d="M990.48,-18C996.26,-18 1002.04,-18 1007.82,-18"/>
</g>
<!-- aabbba&#45;&#45;abbbba -->
<g id="edge56" class="edge">
<title>aabbba&#45;&#45;abbbba</title>
<path fill="none" stroke="black" d="M965.05,-34.03C977.08,-41.7 992.56,-50.06 1007.8,-54 1061.15,-67.79 1946.35,-67.45 1999.8,-54 2015.42,-50.07 2031.37,-41.71 2043.78,-34.03"/>
</g>
<!-- aabbba&#45;&#45;aabbbb -->
<g id="edge55" class="edge">
<title>aabbba&#45;&#45;aabbbb</title>
<path fill="none" stroke="black" d="M965.05,-34.03C977.08,-41.7 992.56,-50.06 1007.8,-54 1097.95,-77.3 2593.57,-77.01 2683.8,-54 2699.23,-50.07 2714.94,-41.71 2727.16,-34.03"/>
</g>
<!-- ababba&#45;&#45;abbbba -->
<g id="edge76" class="edge">
<title>ababba&#45;&#45;abbbba</title>
<path fill="none" stroke="black" d="M1862.43,-34.03C1874.65,-41.71 1890.37,-50.07 1905.8,-54 1946.28,-64.32 1959.28,-64.2 1999.8,-54 2015.42,-50.07 2031.37,-41.71 2043.78,-34.03"/>
</g>
<!-- ababba&#45;&#45;ababbb -->
<g id="edge77" class="edge">
<title>ababba&#45;&#45;ababbb</title>
<path fill="none" stroke="black" d="M1862.43,-34.03C1874.65,-41.71 1890.37,-50.07 1905.8,-54 1965.01,-69.1 2396.58,-69.1 2455.8,-54 2471.23,-50.07 2486.94,-41.71 2499.16,-34.03"/>
</g>
<!-- abaaaa -->
<g id="node30" class="node">
<title>abaaaa</title>
<ellipse fill="none" stroke="cyan" cx="1390.8" cy="-90" rx="46.29" ry="18"/>
<text text-anchor="middle" x="1390.8" y="-86.3" font-family="Times,serif" font-size="14.00"> abaaaa 5 </text>
</g>
<!-- aabbbb&#45;&#45;abaaaa -->
<g id="edge57" class="edge">
<title>aabbbb&#45;&#45;abaaaa</title>
<path fill="none" stroke="black" d="M2715.46,-30.74C2708.06,-32.84 2700.23,-34.76 2692.8,-36 2443.71,-77.54 1638.88,-86.94 1437.04,-88.66"/>
</g>
<!-- aabbbb&#45;&#45;abbbbb -->
<g id="edge58" class="edge">
<title>aabbbb&#45;&#45;abbbbb</title>
<path fill="none" stroke="black" d="M2713.75,-30.07C2671.04,-43.18 2600.31,-64.89 2557.67,-77.99"/>
</g>
<!-- abbaaa&#45;&#45;abbbaa -->
<g id="edge81" class="edge">
<title>abbaaa&#45;&#45;abbbaa</title>
<path fill="none" stroke="black" d="M1413.05,-34.03C1425.08,-41.7 1440.56,-50.06 1455.8,-54 1548.53,-77.96 1793.99,-77.67 1886.8,-54 1902.23,-50.07 1917.94,-41.71 1930.16,-34.03"/>
</g>
<!-- abbaaa&#45;&#45;abbaba -->
<g id="edge80" class="edge">
<title>abbaaa&#45;&#45;abbaba</title>
<path fill="none" stroke="black" d="M1437.61,-18C1443.47,-18 1449.32,-18 1455.18,-18"/>
</g>
<!-- abbaaa&#45;&#45;abbaab -->
<g id="edge79" class="edge">
<title>abbaaa&#45;&#45;abbaab</title>
<path fill="none" stroke="black" d="M1413.05,-34.03C1425.08,-41.7 1440.56,-50.06 1455.8,-54 1496.24,-64.45 1509.31,-64.32 1549.8,-54 1565.23,-50.07 1580.94,-41.71 1593.16,-34.03"/>
</g>
<!-- ababbb&#45;&#45;abbbbb -->
<g id="edge78" class="edge">
<title>ababbb&#45;&#45;abbbbb</title>
<path fill="none" stroke="black" d="M2521.8,-36.1C2521.8,-46.92 2521.8,-60.85 2521.8,-71.7"/>
</g>
<!-- aabaaa -->
<g id="node29" class="node">
<title>aabaaa</title>
<ellipse fill="none" stroke="cyan" cx="775.8" cy="-90" rx="46.29" ry="18"/>
<text text-anchor="middle" x="775.8" y="-86.3" font-family="Times,serif" font-size="14.00"> aabaaa 5 </text>
</g>
<!-- aabaaa&#45;&#45;aabaab -->
<g id="edge31" class="edge">
<title>aabaaa&#45;&#45;aabaab</title>
<path fill="none" stroke="black" d="M734.19,-82.11C712.63,-78.71 685.85,-74.76 661.8,-72 463.78,-49.29 410.61,-73.16 214.8,-36 207.51,-34.62 199.82,-32.64 192.56,-30.52"/>
</g>
<!-- aabaaa&#45;&#45;aababa -->
<g id="edge33" class="edge">
<title>aabaaa&#45;&#45;aababa</title>
<path fill="none" stroke="black" d="M733.89,-82.33C712.37,-79.01 685.71,-75.07 661.8,-72 513.27,-52.95 473.53,-65.88 326.8,-36 319.63,-34.54 312.06,-32.56 304.89,-30.46"/>
</g>
<!-- aabaaa&#45;&#45;aabbaa -->
<g id="edge32" class="edge">
<title>aabaaa&#45;&#45;aabbaa</title>
<path fill="none" stroke="black" d="M788.83,-72.41C797.6,-61.25 809.11,-46.6 817.86,-35.47"/>
</g>
<!-- aabaaa&#45;&#45;abbaaa -->
<g id="edge34" class="edge">
<title>aabaaa&#45;&#45;abbaaa</title>
<path fill="none" stroke="black" d="M808.94,-77.42C816.07,-75.31 823.63,-73.35 830.8,-72 1051.51,-30.57 1113.98,-76.87 1334.8,-36 1342.09,-34.65 1349.78,-32.69 1357.04,-30.57"/>
</g>
<!-- aabaaa&#45;&#45;ababbb -->
<g id="edge35" class="edge">
<title>aabaaa&#45;&#45;ababbb</title>
<path fill="none" stroke="black" d="M808.6,-77.24C815.82,-75.11 823.5,-73.18 830.8,-72 1189.3,-13.81 2106,-92.41 2464.8,-36 2472.34,-34.81 2480.29,-32.89 2487.78,-30.76"/>
</g>
<!-- abaaaa&#45;&#45;abaaab -->
<g id="edge59" class="edge">
<title>abaaaa&#45;&#45;abaaab</title>
<path fill="none" stroke="black" d="M1348.75,-82.49C1293.7,-73.64 1194.4,-56.54 1110.8,-36 1103.89,-34.3 1096.57,-32.26 1089.59,-30.19"/>
</g>
<!-- abaaaa&#45;&#45;abaaba -->
<g id="edge62" class="edge">
<title>abaaaa&#45;&#45;abaaba</title>
<path fill="none" stroke="black" d="M1367.32,-74.33C1348.2,-62.38 1321.35,-45.6 1302.24,-33.65"/>
</g>
<!-- abaaaa&#45;&#45;ababaa -->
<g id="edge60" class="edge">
<title>abaaaa&#45;&#45;ababaa</title>
<path fill="none" stroke="black" d="M1433,-82.51C1488.24,-73.67 1587.9,-56.58 1671.8,-36 1678.7,-34.31 1686.02,-32.27 1693.01,-30.2"/>
</g>
<!-- abaaaa&#45;&#45;abbaaa -->
<g id="edge61" class="edge">
<title>abaaaa&#45;&#45;abbaaa</title>
<path fill="none" stroke="black" d="M1390.8,-71.7C1390.8,-60.85 1390.8,-46.92 1390.8,-36.1"/>
</g>
</g>
</svg>
