<?xml version="1.0" encoding="UTF-8" standalone="no"?>
<!DOCTYPE svg PUBLIC "-//W3C//DTD SVG 1.1//EN"
 "http://www.w3.org/Graphics/SVG/1.1/DTD/svg11.dtd">
<!-- Generated by graphviz version 6.0.2 (0)
 -->
<!-- Pages: 1 -->
<svg width="415pt" height="548pt"
 viewBox="0.00 0.00 415.48 548.00" xmlns="http://www.w3.org/2000/svg" xmlns:xlink="http://www.w3.org/1999/xlink">
<g id="graph0" class="graph" transform="scale(1 1) rotate(0) translate(4 544)">
<polygon fill="white" stroke="none" points="-4,4 -4,-544 411.48,-544 411.48,4 -4,4"/>
<!-- (1, 1, 1, 1, 7) -->
<g id="node1" class="node">
<title>(1, 1, 1, 1, 7)</title>
<ellipse fill="none" stroke="black" cx="260.74" cy="-522" rx="79.09" ry="18"/>
<text text-anchor="middle" x="260.74" y="-518.3" font-family="Times,serif" font-size="14.00">(1, 1, 1, 1, 7) &#45; 330</text>
</g>
<!-- (1, 1, 1, 2, 6) -->
<g id="node2" class="node">
<title>(1, 1, 1, 2, 6)</title>
<ellipse fill="none" stroke="black" cx="260.74" cy="-450" rx="83.39" ry="18"/>
<text text-anchor="middle" x="260.74" y="-446.3" font-family="Times,serif" font-size="14.00">(1, 1, 1, 2, 6) &#45; 4620</text>
</g>
<!-- (1, 1, 1, 1, 7)&#45;&#45;(1, 1, 1, 2, 6) -->
<g id="edge1" class="edge">
<title>(1, 1, 1, 1, 7)&#45;&#45;(1, 1, 1, 2, 6)</title>
<path fill="none" stroke="black" d="M260.74,-503.7C260.74,-492.85 260.74,-478.92 260.74,-468.1"/>
</g>
<!-- (1, 1, 1, 3, 5) -->
<g id="node3" class="node">
<title>(1, 1, 1, 3, 5)</title>
<ellipse fill="none" stroke="black" cx="205.74" cy="-378" rx="83.39" ry="18"/>
<text text-anchor="middle" x="205.74" y="-374.3" font-family="Times,serif" font-size="14.00">(1, 1, 1, 3, 5) &#45; 9240</text>
</g>
<!-- (1, 1, 1, 2, 6)&#45;&#45;(1, 1, 1, 3, 5) -->
<g id="edge2" class="edge">
<title>(1, 1, 1, 2, 6)&#45;&#45;(1, 1, 1, 3, 5)</title>
<path fill="none" stroke="black" d="M247.43,-432.05C238.78,-421.05 227.56,-406.76 218.93,-395.79"/>
</g>
<!-- (1, 1, 2, 2, 5) -->
<g id="node5" class="node">
<title>(1, 1, 2, 2, 5)</title>
<ellipse fill="none" stroke="black" cx="319.74" cy="-306" rx="87.99" ry="18"/>
<text text-anchor="middle" x="319.74" y="-302.3" font-family="Times,serif" font-size="14.00">(1, 1, 2, 2, 5) &#45; 20790</text>
</g>
<!-- (1, 1, 1, 2, 6)&#45;&#45;(1, 1, 2, 2, 5) -->
<g id="edge3" class="edge">
<title>(1, 1, 1, 2, 6)&#45;&#45;(1, 1, 2, 2, 5)</title>
<path fill="none" stroke="black" d="M275.16,-431.84C282.85,-421.92 291.9,-408.88 297.74,-396 308.53,-372.23 314.52,-342.39 317.44,-324.01"/>
</g>
<!-- (1, 1, 1, 4, 4) -->
<g id="node4" class="node">
<title>(1, 1, 1, 4, 4)</title>
<ellipse fill="none" stroke="black" cx="92.74" cy="-306" rx="83.39" ry="18"/>
<text text-anchor="middle" x="92.74" y="-302.3" font-family="Times,serif" font-size="14.00">(1, 1, 1, 4, 4) &#45; 5775</text>
</g>
<!-- (1, 1, 1, 3, 5)&#45;&#45;(1, 1, 1, 4, 4) -->
<g id="edge4" class="edge">
<title>(1, 1, 1, 3, 5)&#45;&#45;(1, 1, 1, 4, 4)</title>
<path fill="none" stroke="black" d="M179.53,-360.76C161.28,-349.46 137.03,-334.44 118.81,-323.15"/>
</g>
<!-- (1, 1, 1, 3, 5)&#45;&#45;(1, 1, 2, 2, 5) -->
<g id="edge5" class="edge">
<title>(1, 1, 1, 3, 5)&#45;&#45;(1, 1, 2, 2, 5)</title>
<path fill="none" stroke="black" d="M232.18,-360.76C250.47,-349.54 274.71,-334.65 293.05,-323.39"/>
</g>
<!-- (1, 1, 2, 3, 4) -->
<g id="node6" class="node">
<title>(1, 1, 2, 3, 4)</title>
<ellipse fill="none" stroke="black" cx="203.74" cy="-234" rx="87.99" ry="18"/>
<text text-anchor="middle" x="203.74" y="-230.3" font-family="Times,serif" font-size="14.00">(1, 1, 2, 3, 4) &#45; 69300</text>
</g>
<!-- (1, 1, 1, 3, 5)&#45;&#45;(1, 1, 2, 3, 4) -->
<g id="edge6" class="edge">
<title>(1, 1, 1, 3, 5)&#45;&#45;(1, 1, 2, 3, 4)</title>
<path fill="none" stroke="black" d="M205.5,-359.87C205.12,-332.58 204.37,-279.52 203.98,-252.19"/>
</g>
<!-- (1, 1, 1, 4, 4)&#45;&#45;(1, 1, 2, 3, 4) -->
<g id="edge7" class="edge">
<title>(1, 1, 1, 4, 4)&#45;&#45;(1, 1, 2, 3, 4)</title>
<path fill="none" stroke="black" d="M118.49,-288.76C136.29,-277.54 159.9,-262.65 177.75,-251.39"/>
</g>
<!-- (1, 1, 2, 2, 5)&#45;&#45;(1, 1, 2, 3, 4) -->
<g id="edge8" class="edge">
<title>(1, 1, 2, 2, 5)&#45;&#45;(1, 1, 2, 3, 4)</title>
<path fill="none" stroke="black" d="M292.84,-288.76C274.1,-277.46 249.21,-262.44 230.5,-251.15"/>
</g>
<!-- (1, 2, 2, 2, 4) -->
<g id="node8" class="node">
<title>(1, 2, 2, 2, 4)</title>
<ellipse fill="none" stroke="black" cx="319.74" cy="-162" rx="87.99" ry="18"/>
<text text-anchor="middle" x="319.74" y="-158.3" font-family="Times,serif" font-size="14.00">(1, 2, 2, 2, 4) &#45; 34650</text>
</g>
<!-- (1, 1, 2, 2, 5)&#45;&#45;(1, 2, 2, 2, 4) -->
<g id="edge9" class="edge">
<title>(1, 1, 2, 2, 5)&#45;&#45;(1, 2, 2, 2, 4)</title>
<path fill="none" stroke="black" d="M319.74,-287.87C319.74,-260.58 319.74,-207.52 319.74,-180.19"/>
</g>
<!-- (1, 1, 3, 3, 3) -->
<g id="node7" class="node">
<title>(1, 1, 3, 3, 3)</title>
<ellipse fill="none" stroke="black" cx="87.74" cy="-162" rx="87.99" ry="18"/>
<text text-anchor="middle" x="87.74" y="-158.3" font-family="Times,serif" font-size="14.00">(1, 1, 3, 3, 3) &#45; 15400</text>
</g>
<!-- (1, 1, 2, 3, 4)&#45;&#45;(1, 1, 3, 3, 3) -->
<g id="edge10" class="edge">
<title>(1, 1, 2, 3, 4)&#45;&#45;(1, 1, 3, 3, 3)</title>
<path fill="none" stroke="black" d="M176.84,-216.76C158.1,-205.46 133.21,-190.44 114.5,-179.15"/>
</g>
<!-- (1, 1, 2, 3, 4)&#45;&#45;(1, 2, 2, 2, 4) -->
<g id="edge11" class="edge">
<title>(1, 1, 2, 3, 4)&#45;&#45;(1, 2, 2, 2, 4)</title>
<path fill="none" stroke="black" d="M230.65,-216.76C249.39,-205.46 274.28,-190.44 292.98,-179.15"/>
</g>
<!-- (1, 2, 2, 3, 3) -->
<g id="node9" class="node">
<title>(1, 2, 2, 3, 3)</title>
<ellipse fill="none" stroke="black" cx="203.74" cy="-90" rx="87.99" ry="18"/>
<text text-anchor="middle" x="203.74" y="-86.3" font-family="Times,serif" font-size="14.00">(1, 2, 2, 3, 3) &#45; 69300</text>
</g>
<!-- (1, 1, 2, 3, 4)&#45;&#45;(1, 2, 2, 3, 3) -->
<g id="edge12" class="edge">
<title>(1, 1, 2, 3, 4)&#45;&#45;(1, 2, 2, 3, 3)</title>
<path fill="none" stroke="black" d="M203.74,-215.87C203.74,-188.58 203.74,-135.52 203.74,-108.19"/>
</g>
<!-- (1, 1, 3, 3, 3)&#45;&#45;(1, 2, 2, 3, 3) -->
<g id="edge13" class="edge">
<title>(1, 1, 3, 3, 3)&#45;&#45;(1, 2, 2, 3, 3)</title>
<path fill="none" stroke="black" d="M114.65,-144.76C133.39,-133.46 158.28,-118.44 176.98,-107.15"/>
</g>
<!-- (1, 2, 2, 2, 4)&#45;&#45;(1, 2, 2, 3, 3) -->
<g id="edge14" class="edge">
<title>(1, 2, 2, 2, 4)&#45;&#45;(1, 2, 2, 3, 3)</title>
<path fill="none" stroke="black" d="M292.84,-144.76C274.1,-133.46 249.21,-118.44 230.5,-107.15"/>
</g>
<!-- (2, 2, 2, 2, 3) -->
<g id="node10" class="node">
<title>(2, 2, 2, 2, 3)</title>
<ellipse fill="none" stroke="black" cx="261.74" cy="-18" rx="87.99" ry="18"/>
<text text-anchor="middle" x="261.74" y="-14.3" font-family="Times,serif" font-size="14.00">(2, 2, 2, 2, 3) &#45; 17325</text>
</g>
<!-- (1, 2, 2, 2, 4)&#45;&#45;(2, 2, 2, 2, 3) -->
<g id="edge15" class="edge">
<title>(1, 2, 2, 2, 4)&#45;&#45;(2, 2, 2, 2, 3)</title>
<path fill="none" stroke="black" d="M318.26,-143.94C316.17,-125.51 311.36,-95.63 300.74,-72 294.84,-58.87 285.3,-45.83 277.13,-35.96"/>
</g>
<!-- (1, 2, 2, 3, 3)&#45;&#45;(2, 2, 2, 2, 3) -->
<g id="edge16" class="edge">
<title>(1, 2, 2, 3, 3)&#45;&#45;(2, 2, 2, 2, 3)</title>
<path fill="none" stroke="black" d="M217.78,-72.05C226.9,-61.05 238.74,-46.76 247.83,-35.79"/>
</g>
</g>
</svg>
