<?xml version="1.0" encoding="UTF-8" standalone="no"?>
<!DOCTYPE svg PUBLIC "-//W3C//DTD SVG 1.1//EN"
 "http://www.w3.org/Graphics/SVG/1.1/DTD/svg11.dtd">
<!-- Generated by graphviz version 6.0.2 (0)
 -->
<!-- Pages: 1 -->
<svg width="290pt" height="476pt"
 viewBox="0.00 0.00 289.93 476.00" xmlns="http://www.w3.org/2000/svg" xmlns:xlink="http://www.w3.org/1999/xlink">
<g id="graph0" class="graph" transform="scale(1 1) rotate(0) translate(4 472)">
<polygon fill="white" stroke="none" points="-4,4 -4,-472 285.93,-472 285.93,4 -4,4"/>
<!-- (1, 1, 1, 1, 6) -->
<g id="node1" class="node">
<title>(1, 1, 1, 1, 6)</title>
<ellipse fill="none" stroke="black" cx="138.19" cy="-450" rx="79.09" ry="18"/>
<text text-anchor="middle" x="138.19" y="-446.3" font-family="Times,serif" font-size="14.00">(1, 1, 1, 1, 6) &#45; 210</text>
</g>
<!-- (1, 1, 1, 2, 5) -->
<g id="node2" class="node">
<title>(1, 1, 1, 2, 5)</title>
<ellipse fill="none" stroke="black" cx="138.19" cy="-378" rx="83.39" ry="18"/>
<text text-anchor="middle" x="138.19" y="-374.3" font-family="Times,serif" font-size="14.00">(1, 1, 1, 2, 5) &#45; 2520</text>
</g>
<!-- (1, 1, 1, 1, 6)&#45;&#45;(1, 1, 1, 2, 5) -->
<g id="edge1" class="edge">
<title>(1, 1, 1, 1, 6)&#45;&#45;(1, 1, 1, 2, 5)</title>
<path fill="none" stroke="black" d="M138.19,-431.7C138.19,-420.85 138.19,-406.92 138.19,-396.1"/>
</g>
<!-- (1, 1, 1, 3, 4) -->
<g id="node3" class="node">
<title>(1, 1, 1, 3, 4)</title>
<ellipse fill="none" stroke="black" cx="194.19" cy="-306" rx="83.39" ry="18"/>
<text text-anchor="middle" x="194.19" y="-302.3" font-family="Times,serif" font-size="14.00">(1, 1, 1, 3, 4) &#45; 4200</text>
</g>
<!-- (1, 1, 1, 2, 5)&#45;&#45;(1, 1, 1, 3, 4) -->
<g id="edge2" class="edge">
<title>(1, 1, 1, 2, 5)&#45;&#45;(1, 1, 1, 3, 4)</title>
<path fill="none" stroke="black" d="M151.75,-360.05C160.55,-349.05 171.98,-334.76 180.76,-323.79"/>
</g>
<!-- (1, 1, 2, 2, 4) -->
<g id="node4" class="node">
<title>(1, 1, 2, 2, 4)</title>
<ellipse fill="none" stroke="black" cx="83.19" cy="-234" rx="83.39" ry="18"/>
<text text-anchor="middle" x="83.19" y="-230.3" font-family="Times,serif" font-size="14.00">(1, 1, 2, 2, 4) &#45; 9450</text>
</g>
<!-- (1, 1, 1, 2, 5)&#45;&#45;(1, 1, 2, 2, 4) -->
<g id="edge3" class="edge">
<title>(1, 1, 1, 2, 5)&#45;&#45;(1, 1, 2, 2, 4)</title>
<path fill="none" stroke="black" d="M124.03,-359.85C116.5,-349.93 107.7,-336.89 102.19,-324 92.08,-300.31 87.14,-270.71 84.89,-252.33"/>
</g>
<!-- (1, 1, 1, 3, 4)&#45;&#45;(1, 1, 2, 2, 4) -->
<g id="edge4" class="edge">
<title>(1, 1, 1, 3, 4)&#45;&#45;(1, 1, 2, 2, 4)</title>
<path fill="none" stroke="black" d="M168.45,-288.76C150.52,-277.46 126.7,-262.44 108.8,-251.15"/>
</g>
<!-- (1, 1, 2, 3, 3) -->
<g id="node5" class="node">
<title>(1, 1, 2, 3, 3)</title>
<ellipse fill="none" stroke="black" cx="194.19" cy="-162" rx="87.99" ry="18"/>
<text text-anchor="middle" x="194.19" y="-158.3" font-family="Times,serif" font-size="14.00">(1, 1, 2, 3, 3) &#45; 12600</text>
</g>
<!-- (1, 1, 1, 3, 4)&#45;&#45;(1, 1, 2, 3, 3) -->
<g id="edge5" class="edge">
<title>(1, 1, 1, 3, 4)&#45;&#45;(1, 1, 2, 3, 3)</title>
<path fill="none" stroke="black" d="M194.19,-287.87C194.19,-260.58 194.19,-207.52 194.19,-180.19"/>
</g>
<!-- (1, 1, 2, 2, 4)&#45;&#45;(1, 1, 2, 3, 3) -->
<g id="edge6" class="edge">
<title>(1, 1, 2, 2, 4)&#45;&#45;(1, 1, 2, 3, 3)</title>
<path fill="none" stroke="black" d="M108.94,-216.76C126.74,-205.54 150.35,-190.65 168.2,-179.39"/>
</g>
<!-- (1, 2, 2, 2, 3) -->
<g id="node6" class="node">
<title>(1, 2, 2, 2, 3)</title>
<ellipse fill="none" stroke="black" cx="136.19" cy="-90" rx="87.99" ry="18"/>
<text text-anchor="middle" x="136.19" y="-86.3" font-family="Times,serif" font-size="14.00">(1, 2, 2, 2, 3) &#45; 12600</text>
</g>
<!-- (1, 1, 2, 2, 4)&#45;&#45;(1, 2, 2, 2, 3) -->
<g id="edge7" class="edge">
<title>(1, 1, 2, 2, 4)&#45;&#45;(1, 2, 2, 2, 3)</title>
<path fill="none" stroke="black" d="M83.49,-215.95C84.35,-197.54 87.32,-167.67 97.19,-144 102.73,-130.72 112.27,-117.67 120.52,-107.84"/>
</g>
<!-- (1, 1, 2, 3, 3)&#45;&#45;(1, 2, 2, 2, 3) -->
<g id="edge8" class="edge">
<title>(1, 1, 2, 3, 3)&#45;&#45;(1, 2, 2, 2, 3)</title>
<path fill="none" stroke="black" d="M180.15,-144.05C171.03,-133.05 159.2,-118.76 150.1,-107.79"/>
</g>
<!-- (2, 2, 2, 2, 2) -->
<g id="node7" class="node">
<title>(2, 2, 2, 2, 2)</title>
<ellipse fill="none" stroke="black" cx="136.19" cy="-18" rx="79.09" ry="18"/>
<text text-anchor="middle" x="136.19" y="-14.3" font-family="Times,serif" font-size="14.00">(2, 2, 2, 2, 2) &#45; 945</text>
</g>
<!-- (1, 2, 2, 2, 3)&#45;&#45;(2, 2, 2, 2, 2) -->
<g id="edge9" class="edge">
<title>(1, 2, 2, 2, 3)&#45;&#45;(2, 2, 2, 2, 2)</title>
<path fill="none" stroke="black" d="M136.19,-71.7C136.19,-60.85 136.19,-46.92 136.19,-36.1"/>
</g>
</g>
</svg>
